<?xml version="1.0" standalone="no"?>
<!DOCTYPE svg PUBLIC "-//W3C//DTD SVG 20010904//EN"
 "http://www.w3.org/TR/2001/REC-SVG-20010904/DTD/svg10.dtd">
<svg version="1.0" xmlns="http://www.w3.org/2000/svg"
 width="2048.000000pt" height="2048.000000pt" viewBox="0 0 2048.000000 2048.000000"
 preserveAspectRatio="xMidYMid meet">
<metadata>
Created by potrace 1.11, written by Peter Selinger 2001-2013
</metadata>
<g transform="translate(0.000000,2048.000000) scale(0.100000,-0.100000)"
fill="#000000" stroke="none">
<path d="M9940 20261 c-8 -4 -47 -8 -87 -7 -39 1 -69 -2 -67 -5 2 -4 -18 -5
-44 -4 -26 1 -50 -3 -54 -9 -5 -7 -8 -6 -8 4 0 13 -1 13 -10 0 -7 -11 -10 -11
-10 -2 0 10 -5 10 -21 1 -15 -8 -19 -8 -15 0 5 8 0 8 -16 3 -28 -10 -39 -9
-57 2 -9 6 -12 5 -7 -2 4 -7 -7 -10 -34 -9 -22 2 -40 -2 -40 -7 0 -6 -4 -6
-11 1 -13 13 -51 5 -42 -10 4 -6 1 -7 -8 -2 -20 13 -49 13 -49 1 0 -6 -4 -5
-9 3 -5 7 -11 9 -14 4 -3 -5 -22 -9 -41 -8 -21 1 -36 -3 -36 -9 0 -6 -5 -4
-10 4 -9 13 -10 13 -10 0 0 -13 -1 -13 -10 0 -8 12 -10 12 -10 1 0 -10 -3 -11
-14 -2 -10 8 -16 9 -21 1 -3 -6 -11 -8 -16 -5 -5 4 -9 0 -9 -7 0 -10 -2 -10
-9 1 -5 8 -11 9 -15 3 -3 -5 -19 -8 -36 -7 -16 1 -30 -2 -30 -8 0 -7 -4 -7
-12 1 -6 6 -17 8 -27 3 -9 -5 -24 -7 -33 -6 -10 2 -20 -1 -24 -6 -3 -5 -10 -9
-15 -9 -6 0 -7 5 -3 11 5 8 1 8 -14 0 -11 -6 -31 -11 -44 -11 -13 0 -33 -1
-46 -1 -12 0 -20 -4 -17 -10 4 -5 -3 -5 -17 0 -15 5 -31 5 -41 -1 -9 -5 -21
-7 -26 -3 -5 3 -12 1 -16 -5 -4 -6 -11 -7 -17 -4 -6 4 -14 0 -19 -7 -7 -11 -9
-11 -9 -1 0 9 -5 10 -17 4 -10 -5 -24 -7 -30 -5 -7 3 -13 -1 -13 -9 0 -10 -3
-9 -10 2 -9 13 -10 13 -10 0 0 -13 -1 -13 -10 0 -8 12 -10 12 -10 1 0 -8 -3
-11 -6 -8 -4 3 -15 2 -25 -4 -14 -7 -19 -6 -19 3 0 9 -3 10 -8 2 -4 -6 -14
-11 -22 -12 -22 -1 -44 -7 -55 -14 -6 -4 -17 -3 -25 2 -9 5 -19 5 -27 -1 -6
-6 -25 -12 -42 -13 -17 -1 -34 -5 -37 -9 -12 -12 -36 -8 -29 6 4 6 0 4 -8 -5
-16 -21 -32 -24 -20 -5 4 7 -4 5 -18 -4 -19 -13 -30 -14 -44 -7 -14 9 -17 8
-13 -4 7 -16 -18 -18 -41 -3 -9 5 -12 4 -7 -3 3 -6 2 -13 -4 -17 -5 -3 -10 0
-10 7 0 9 -3 9 -8 2 -4 -6 -19 -10 -34 -10 -14 1 -24 -2 -21 -7 3 -5 -3 -7
-13 -6 -11 2 -25 0 -32 -4 -7 -5 -26 -9 -42 -9 -16 -1 -27 -4 -25 -8 3 -4 -1
-8 -8 -7 -48 1 -77 -4 -71 -14 4 -7 -1 -7 -16 1 -15 8 -20 8 -16 1 5 -7 -3
-12 -21 -13 -63 -4 -105 -17 -97 -30 4 -6 -1 -6 -13 1 -13 6 -23 7 -29 1 -6
-6 -22 -11 -37 -12 -15 -1 -27 -6 -27 -11 0 -5 -7 -7 -15 -3 -8 3 -15 1 -15
-4 0 -5 -9 -7 -20 -5 -11 2 -20 0 -20 -5 0 -5 -9 -7 -20 -5 -11 2 -20 -1 -20
-7 0 -5 -7 -7 -15 -4 -9 3 -26 1 -38 -6 -47 -24 -55 -26 -80 -24 -15 2 -24 -1
-21 -5 5 -8 -10 -13 -28 -10 -5 0 -8 -3 -8 -9 0 -5 -7 -7 -16 -3 -9 3 -19 1
-23 -6 -4 -6 -26 -12 -48 -14 -23 -1 -39 -5 -36 -9 2 -5 -5 -8 -16 -8 -12 0
-21 -6 -21 -12 0 -9 -4 -8 -10 2 -6 10 -10 11 -10 3 0 -7 -8 -13 -18 -13 -10
0 -24 -6 -31 -12 -11 -11 -12 -10 -6 2 8 13 6 13 -8 1 -9 -7 -26 -11 -38 -8
-16 4 -18 3 -9 -8 9 -11 6 -13 -14 -11 -15 2 -26 -1 -26 -6 0 -5 -4 -7 -9 -3
-5 3 -15 -1 -23 -8 -7 -8 -19 -12 -26 -9 -6 2 -12 -2 -12 -10 0 -10 -3 -9 -10
2 -7 11 -10 11 -10 2 0 -7 -4 -10 -10 -7 -5 3 -10 1 -10 -6 0 -7 -3 -9 -7 -6
-3 4 -12 2 -20 -4 -10 -9 -17 -8 -28 1 -13 11 -14 10 -9 -5 5 -12 4 -16 -4
-11 -6 3 -14 1 -17 -5 -4 -5 -13 -8 -21 -5 -8 3 -14 1 -14 -5 0 -6 -4 -7 -10
-4 -5 3 -10 1 -10 -4 0 -6 -11 -11 -25 -11 -14 0 -25 -5 -25 -11 0 -6 -8 -9
-17 -7 -10 2 -24 -3 -31 -12 -10 -11 -12 -11 -6 -1 5 10 -3 8 -22 -6 -16 -11
-37 -21 -46 -22 -41 -3 -47 -5 -42 -12 2 -4 -11 -11 -31 -15 -19 -3 -32 -10
-29 -15 3 -5 -1 -6 -9 -3 -8 3 -22 -2 -31 -11 -9 -9 -16 -12 -16 -6 0 6 -5 11
-11 11 -5 0 -8 -4 -4 -9 3 -5 1 -12 -5 -16 -5 -3 -10 0 -10 7 0 8 -5 6 -11 -5
-6 -9 -14 -15 -20 -12 -5 4 -12 -1 -15 -10 -6 -13 -8 -14 -15 -3 -7 11 -9 11
-9 -1 0 -8 -6 -11 -16 -7 -10 4 -13 2 -8 -6 5 -8 0 -9 -15 -5 -14 3 -24 0 -27
-8 -5 -12 -50 -30 -66 -27 -5 1 -8 -3 -8 -9 0 -6 -7 -8 -16 -5 -8 3 -13 2 -10
-2 2 -4 -10 -14 -27 -21 -18 -7 -48 -20 -67 -28 -19 -9 -39 -17 -43 -17 -4 -1
-12 -8 -17 -16 -8 -12 -10 -13 -10 -1 0 10 -8 7 -27 -10 -14 -13 -22 -17 -18
-10 5 9 -5 5 -22 -7 -17 -12 -36 -22 -43 -22 -6 0 -8 -4 -5 -10 3 -5 1 -10 -4
-10 -6 0 -11 6 -11 13 0 8 -4 7 -10 -3 -5 -8 -10 -11 -10 -6 0 5 -8 0 -17 -11
-10 -11 -24 -18 -30 -16 -7 3 -16 -2 -19 -11 -3 -9 -10 -16 -16 -16 -5 0 -6 6
-3 13 4 6 0 4 -8 -5 -8 -10 -22 -18 -31 -18 -9 0 -16 -4 -16 -10 0 -5 -6 -10
-14 -10 -19 0 -78 -31 -93 -50 -7 -8 -13 -11 -13 -6 0 5 -10 1 -22 -10 -14
-13 -19 -14 -14 -4 4 8 1 7 -8 -4 -8 -10 -19 -15 -25 -11 -6 3 -11 1 -11 -6 0
-7 -3 -9 -7 -6 -3 4 -11 0 -17 -8 -6 -7 -18 -15 -26 -17 -8 -2 -23 -11 -34
-21 -11 -10 -26 -15 -32 -13 -7 3 -15 -1 -18 -9 -3 -8 -15 -19 -27 -25 -17
-10 -20 -9 -13 2 4 7 -2 4 -14 -6 -26 -23 -57 -41 -94 -57 -16 -6 -25 -16 -21
-22 3 -5 1 -7 -5 -3 -6 3 -13 2 -17 -4 -4 -6 -11 -8 -16 -5 -5 4 -12 -1 -15
-9 -3 -9 -10 -13 -15 -10 -5 3 -12 -1 -15 -10 -3 -9 -12 -12 -21 -9 -10 4 -14
2 -10 -4 3 -5 -9 -16 -28 -23 -19 -7 -37 -20 -40 -27 -2 -8 -9 -12 -15 -8 -5
3 -18 -3 -29 -14 -11 -11 -22 -17 -25 -13 -3 3 -6 0 -6 -6 0 -7 -7 -12 -15
-12 -8 0 -15 -5 -15 -11 0 -5 -5 -7 -10 -4 -6 3 -10 -1 -10 -9 0 -9 -5 -16
-11 -16 -5 0 -7 6 -3 13 5 8 3 8 -9 -2 -9 -7 -14 -17 -12 -22 3 -4 -4 -6 -15
-4 -18 3 -25 -5 -21 -27 0 -5 -2 -7 -7 -7 -24 4 -52 -2 -47 -11 6 -9 -8 -14
-27 -11 -5 0 -8 -5 -8 -13 0 -8 -5 -18 -12 -22 -7 -4 -8 -3 -4 4 4 7 3 12 -3
12 -5 0 -13 -10 -16 -21 -6 -17 -9 -19 -16 -8 -7 11 -9 10 -9 -3 0 -10 -3 -17
-7 -16 -17 3 -42 -15 -36 -26 3 -6 3 -8 -2 -4 -12 11 -47 -11 -38 -25 4 -7 0
-6 -10 2 -15 12 -17 12 -11 -3 4 -9 3 -16 -2 -15 -19 3 -37 -1 -31 -8 4 -4 -7
-13 -24 -20 -20 -8 -28 -17 -23 -25 4 -7 4 -10 -1 -6 -4 4 -14 3 -22 -3 -7 -6
-13 -8 -13 -5 0 4 -10 -4 -22 -17 -13 -13 -29 -22 -37 -19 -8 2 -11 1 -9 -4 3
-5 -8 -20 -25 -34 -17 -14 -27 -18 -22 -10 4 8 -3 4 -18 -10 -54 -52 -64 -60
-74 -60 -6 0 -18 -10 -27 -22 -9 -13 -14 -16 -11 -8 4 8 -2 5 -13 -7 -11 -12
-22 -19 -26 -16 -3 4 -6 1 -6 -5 0 -5 -16 -20 -35 -32 -19 -12 -32 -27 -29
-32 4 -7 2 -8 -4 -4 -7 4 -12 2 -12 -4 0 -7 -6 -10 -13 -7 -14 5 -39 -17 -30
-27 4 -3 2 -6 -4 -6 -6 0 -28 -16 -49 -35 -22 -19 -42 -35 -47 -35 -11 0 -52
-44 -50 -52 2 -5 0 -7 -5 -7 -19 3 -33 -2 -27 -11 3 -5 -1 -10 -9 -10 -8 0
-19 -7 -24 -16 -5 -9 -13 -17 -18 -17 -5 -1 -8 -6 -6 -11 2 -5 -5 -5 -15 -2
-9 4 -14 4 -10 0 7 -7 -41 -54 -55 -54 -5 0 -8 -7 -8 -16 0 -8 -5 -12 -10 -9
-6 3 -10 1 -10 -6 0 -7 -3 -10 -6 -6 -8 8 -44 -25 -44 -42 0 -8 -3 -11 -7 -8
-3 4 -17 -6 -31 -21 -14 -15 -28 -26 -31 -24 -3 1 -6 -2 -6 -8 0 -5 -3 -10 -8
-10 -12 1 -35 -24 -30 -32 2 -5 -2 -8 -11 -8 -8 0 -26 -13 -39 -30 -14 -16
-31 -30 -37 -30 -6 0 -9 -4 -5 -9 3 -5 -4 -12 -15 -16 -11 -4 -18 -11 -15 -16
4 -5 0 -9 -8 -9 -8 0 -21 -8 -28 -17 -12 -14 -12 -16 0 -8 10 5 12 4 7 -3 -4
-7 -12 -12 -18 -12 -15 0 -86 -78 -79 -87 3 -4 -3 -1 -13 7 -11 8 -17 10 -13
4 7 -12 -76 -104 -93 -104 -6 0 -9 -6 -8 -12 2 -7 -3 -12 -11 -10 -8 2 -11 -3
-8 -12 4 -9 3 -15 -1 -14 -4 2 -40 -30 -80 -70 -40 -39 -70 -72 -67 -72 4 0
-8 -15 -27 -34 -18 -19 -36 -32 -40 -30 -4 2 -8 -6 -10 -18 -2 -15 -9 -22 -20
-22 -10 1 -16 -2 -13 -6 2 -4 -17 -30 -44 -58 -27 -28 -46 -53 -43 -56 3 -3
-2 -6 -12 -6 -9 0 -15 -4 -12 -9 3 -5 -1 -12 -10 -15 -8 -3 -12 -10 -9 -16 3
-5 0 -10 -7 -10 -7 0 -23 -16 -36 -36 -13 -20 -27 -32 -34 -28 -6 4 -8 3 -4
-4 3 -6 -12 -29 -34 -52 -22 -23 -37 -46 -34 -52 4 -6 3 -8 -3 -5 -14 9 -37
-19 -27 -34 4 -8 3 -9 -4 -5 -7 4 -12 2 -12 -4 0 -6 -4 -8 -10 -5 -5 3 -10 -3
-10 -14 0 -12 -6 -20 -12 -19 -7 2 -12 -3 -10 -9 1 -7 -3 -13 -9 -13 -5 0 -7
-5 -3 -12 4 -7 3 -8 -4 -4 -7 4 -17 -3 -24 -18 -6 -14 -15 -26 -20 -26 -5 0
-6 -4 -3 -10 6 -9 -8 -15 -29 -11 -5 1 -3 -6 5 -15 9 -12 10 -15 1 -10 -8 5
-16 -2 -22 -19 -6 -16 -14 -23 -22 -19 -8 5 -9 2 -5 -10 6 -14 3 -17 -8 -12
-11 4 -14 2 -9 -6 4 -6 -1 -17 -11 -25 -11 -7 -15 -13 -10 -13 4 0 -4 -11 -19
-25 -15 -14 -24 -30 -21 -35 4 -6 1 -9 -7 -8 -7 2 -12 -3 -10 -9 1 -7 -5 -13
-14 -13 -8 0 -12 -4 -9 -10 3 -5 1 -10 -5 -10 -7 0 -9 -7 -6 -16 3 -8 2 -13
-2 -11 -4 3 -13 -1 -20 -9 -7 -8 -10 -14 -7 -14 3 0 0 -6 -7 -14 -7 -8 -16
-12 -20 -9 -4 2 -5 -4 -1 -13 4 -12 3 -15 -5 -10 -7 4 -14 -3 -18 -19 -3 -14
-13 -25 -21 -25 -13 0 -13 -2 -2 -17 10 -11 10 -14 2 -9 -8 4 -13 2 -13 -4 0
-7 -7 -9 -16 -6 -14 5 -15 4 -5 -8 10 -12 8 -17 -9 -26 -11 -6 -18 -15 -15
-21 4 -5 -1 -12 -10 -15 -9 -4 -14 -12 -12 -19 3 -6 -4 -17 -14 -23 -10 -7
-19 -19 -19 -27 0 -8 -5 -15 -11 -15 -5 0 -15 -13 -20 -30 -6 -16 -15 -27 -20
-24 -8 5 -13 -9 -10 -28 0 -5 -3 -8 -9 -8 -5 0 -10 -7 -10 -15 0 -8 -4 -15 -9
-15 -5 0 -13 -9 -16 -20 -4 -11 -11 -18 -16 -14 -5 3 -9 2 -8 -3 4 -22 -2 -43
-11 -38 -9 6 -14 -8 -11 -27 0 -5 -6 -8 -14 -8 -8 0 -14 -3 -14 -7 3 -21 -2
-34 -11 -28 -6 4 -10 3 -9 -2 4 -25 -3 -43 -18 -43 -15 0 -16 -2 -3 -10 13 -8
13 -10 -2 -10 -9 0 -20 -5 -24 -12 -5 -7 -3 -8 7 -3 8 5 5 -2 -6 -15 -12 -14
-14 -20 -5 -15 8 4 6 -1 -5 -12 -11 -11 -24 -18 -29 -15 -5 3 -6 1 -3 -4 8
-13 -23 -75 -34 -68 -5 3 -9 2 -8 -3 3 -20 -2 -34 -21 -53 -11 -11 -15 -20
-10 -20 6 0 5 -6 -2 -14 -7 -8 -16 -12 -20 -10 -3 2 -4 -5 -1 -16 4 -14 1 -20
-7 -18 -7 2 -14 -8 -16 -22 -3 -14 -12 -31 -21 -37 -9 -7 -13 -13 -7 -13 5 0
0 -7 -10 -15 -11 -8 -16 -15 -12 -15 5 0 3 -7 -4 -15 -7 -8 -9 -15 -4 -15 5 0
1 -5 -9 -11 -9 -6 -15 -14 -12 -20 4 -5 1 -9 -5 -9 -6 0 -8 -4 -5 -10 3 -6 1
-10 -5 -10 -7 0 -9 -7 -6 -16 3 -8 2 -12 -4 -9 -5 3 -12 -6 -16 -20 -3 -14
-10 -25 -15 -25 -4 0 -13 -19 -20 -42 -6 -24 -16 -46 -22 -50 -6 -3 -12 -14
-13 -24 -2 -9 -8 -20 -14 -24 -7 -4 -11 -10 -11 -14 3 -25 -1 -36 -10 -30 -7
4 -10 1 -7 -7 3 -8 -4 -22 -15 -31 -13 -11 -15 -18 -7 -18 8 0 6 -7 -7 -17
-11 -10 -18 -24 -16 -30 3 -7 0 -13 -7 -13 -6 0 -9 -4 -5 -9 3 -5 0 -13 -6
-16 -5 -4 -8 -14 -5 -22 3 -8 2 -11 -3 -8 -9 5 -27 -32 -23 -47 1 -5 -3 -8
-10 -8 -6 0 -8 -3 -5 -7 4 -3 -1 -12 -11 -20 -9 -8 -10 -11 -3 -7 9 5 6 -4 -7
-23 -12 -17 -19 -33 -15 -37 3 -3 1 -6 -6 -6 -7 0 -9 -4 -6 -10 3 -5 1 -10 -4
-10 -6 0 -11 -8 -11 -18 0 -10 -6 -24 -12 -31 -11 -11 -10 -13 2 -7 12 6 11 4
-1 -6 -9 -7 -17 -17 -18 -23 -2 -5 -7 -9 -11 -8 -4 1 -6 -6 -3 -16 3 -11 -2
-21 -12 -25 -14 -5 -15 -9 -5 -21 10 -12 10 -15 -3 -15 -10 0 -15 -7 -12 -20
2 -11 0 -20 -6 -20 -5 0 -8 -6 -7 -12 2 -7 -2 -12 -9 -11 -7 2 -10 -6 -8 -17
2 -11 -1 -20 -7 -20 -6 0 -8 -3 -5 -7 4 -3 -1 -15 -10 -26 -10 -11 -12 -17 -6
-13 9 5 11 2 7 -8 -3 -9 -10 -16 -16 -16 -5 0 -7 -4 -3 -9 3 -5 -1 -16 -9 -24
-8 -8 -12 -17 -9 -21 3 -3 1 -12 -5 -19 -7 -8 -9 -17 -5 -20 3 -4 1 -7 -6 -7
-7 0 -10 -4 -6 -9 3 -5 1 -12 -5 -16 -6 -4 -8 -11 -5 -16 4 -5 -1 -12 -10 -15
-13 -6 -14 -8 -3 -15 10 -7 10 -9 1 -9 -7 0 -13 -9 -13 -21 0 -11 -4 -18 -9
-15 -5 4 -7 -4 -3 -16 3 -14 1 -19 -6 -14 -8 4 -10 2 -6 -7 3 -8 1 -18 -5 -22
-6 -3 -11 -17 -11 -30 0 -12 -7 -26 -16 -29 -13 -5 -14 -9 -4 -21 7 -9 8 -15
2 -15 -10 0 -36 -58 -33 -74 1 -5 -4 -13 -11 -17 -11 -7 -11 -9 0 -9 10 0 10
-4 -2 -16 -9 -8 -16 -27 -16 -40 0 -15 -4 -23 -10 -19 -7 4 -9 -3 -6 -19 3
-15 1 -24 -4 -21 -4 3 -11 -2 -14 -11 -3 -9 -2 -12 4 -9 6 4 1 -10 -10 -30
-11 -20 -16 -34 -10 -30 6 3 7 0 4 -9 -3 -9 -10 -16 -14 -16 -5 0 -7 -9 -5
-20 2 -11 -1 -20 -6 -20 -6 0 -7 -4 -4 -10 3 -5 1 -10 -5 -10 -6 0 -8 -5 -5
-10 4 -6 1 -18 -7 -27 -11 -14 -11 -16 2 -9 12 6 11 4 -1 -6 -9 -7 -14 -19
-12 -25 3 -7 1 -13 -4 -13 -5 0 -9 -8 -10 -17 -2 -26 -7 -46 -16 -60 -5 -7 -5
-17 -2 -23 3 -5 1 -10 -5 -10 -6 0 -8 -4 -5 -10 3 -5 0 -10 -7 -10 -9 0 -9 -3
2 -10 11 -7 11 -10 2 -10 -7 0 -11 -4 -7 -9 3 -5 1 -13 -5 -16 -6 -4 -8 -16
-4 -27 5 -15 3 -20 -7 -16 -11 4 -14 -3 -13 -28 1 -19 -2 -34 -8 -34 -5 0 -7
-4 -3 -9 3 -5 1 -12 -5 -16 -6 -4 -8 -11 -5 -16 4 -5 3 -15 -2 -21 -8 -13 -12
-29 -15 -60 -1 -10 -6 -18 -10 -18 -4 0 -8 -5 -8 -11 0 -5 6 -7 12 -4 7 4 4
-1 -6 -9 -15 -12 -16 -16 -5 -16 12 0 12 -2 -1 -10 -8 -5 -15 -25 -15 -46 -1
-21 -7 -40 -14 -42 -9 -3 -9 -7 0 -18 9 -11 9 -14 -1 -14 -7 0 -10 -7 -6 -15
3 -8 1 -15 -5 -15 -6 0 -9 -8 -8 -17 3 -34 -1 -44 -13 -37 -9 5 -9 2 1 -9 9
-12 10 -17 2 -17 -7 0 -9 -4 -6 -10 3 -5 0 -10 -7 -10 -11 0 -11 -2 0 -9 10
-6 10 -10 -3 -21 -12 -10 -13 -16 -4 -26 7 -9 8 -14 1 -14 -6 0 -9 -8 -8 -17
2 -10 -4 -24 -13 -31 -9 -8 -10 -11 -3 -7 7 4 12 0 12 -10 0 -9 -4 -14 -9 -11
-5 3 -9 -4 -8 -17 0 -12 -4 -31 -8 -41 -6 -14 -5 -17 3 -12 8 5 10 2 6 -8 -3
-9 -11 -16 -18 -16 -6 0 -4 -5 4 -10 11 -7 11 -10 2 -10 -7 0 -12 -8 -11 -17
3 -34 -1 -44 -13 -37 -9 5 -9 2 1 -9 7 -9 9 -17 4 -17 -5 0 -9 -10 -8 -22 1
-13 -1 -27 -5 -33 -8 -10 -9 -17 -12 -77 -2 -20 -6 -34 -11 -31 -4 2 -6 -7 -3
-21 3 -14 1 -26 -3 -26 -3 0 -7 -8 -8 -17 -1 -10 -4 -34 -6 -53 -3 -19 -5 -48
-6 -63 -1 -20 -5 -26 -13 -21 -10 6 -10 5 -1 -8 7 -8 10 -18 6 -22 -7 -7 -12
-31 -15 -81 -1 -16 -7 -33 -13 -37 -6 -5 -5 -8 4 -8 9 0 10 -4 4 -12 -11 -15
-11 -28 1 -47 6 -10 5 -12 -2 -7 -8 5 -12 -1 -12 -16 0 -13 -6 -30 -12 -37
-10 -11 -10 -13 0 -7 15 9 16 -10 1 -20 -8 -4 -7 -9 2 -15 10 -6 10 -9 2 -9
-7 0 -10 -7 -7 -15 4 -8 1 -15 -6 -15 -9 0 -9 -4 -2 -13 6 -7 7 -18 3 -26 -5
-7 -7 -23 -5 -37 1 -13 -2 -27 -8 -30 -6 -4 -5 -10 3 -15 12 -7 12 -9 0 -9
-11 0 -11 -3 0 -17 12 -14 12 -16 0 -8 -11 6 -13 2 -9 -19 3 -14 2 -26 -2 -26
-3 0 -4 -14 -2 -31 4 -25 2 -30 -9 -24 -11 7 -12 6 -3 -6 6 -8 9 -23 7 -34 -4
-20 -13 -123 -15 -182 -1 -18 -6 -33 -12 -33 -6 0 -4 -5 4 -11 12 -8 12 -12 2
-16 -10 -4 -10 -8 -1 -19 6 -8 8 -14 3 -14 -5 0 -10 -11 -10 -25 -1 -15 2 -22
9 -18 6 4 7 1 1 -8 -9 -15 -13 -46 -15 -141 -1 -39 -5 -55 -13 -51 -8 5 -8 3
0 -8 12 -15 12 -88 0 -107 -4 -7 -2 -12 4 -12 8 0 8 -6 0 -20 -7 -13 -7 -20
-1 -20 7 0 7 -8 2 -23 -5 -14 -5 -30 0 -40 6 -9 6 -17 2 -17 -5 0 -9 -9 -10
-20 -1 -12 3 -18 9 -14 7 4 7 0 0 -13 -11 -21 -11 -41 1 -60 4 -6 3 -14 -3
-18 -5 -3 -10 -13 -10 -21 0 -10 5 -12 13 -8 9 6 9 4 1 -7 -8 -11 -12 -152 -4
-169 1 -3 1 -9 0 -15 -10 -47 -10 -56 1 -50 8 5 8 2 1 -11 -9 -19 -8 -51 2
-61 3 -3 0 -15 -5 -26 -8 -14 -8 -22 2 -28 10 -6 10 -10 0 -23 -8 -9 -9 -16
-4 -16 5 0 9 -31 8 -70 0 -41 4 -70 10 -70 5 0 5 -4 -2 -8 -7 -5 -9 -13 -3
-21 4 -8 6 -20 3 -28 -3 -7 0 -20 6 -27 7 -9 8 -17 2 -20 -10 -6 -10 -24 1
-41 4 -6 3 -17 -2 -25 -5 -9 -5 -19 1 -26 7 -8 6 -14 -1 -19 -8 -5 -8 -11 1
-21 6 -7 9 -20 6 -28 -3 -8 -1 -17 6 -20 9 -3 8 -5 -1 -5 -7 -1 -10 -6 -6 -12
3 -6 7 -26 9 -45 1 -19 5 -37 8 -40 4 -4 2 -15 -4 -25 -5 -11 -6 -19 -1 -19 5
0 8 -10 7 -23 -1 -12 2 -28 8 -34 6 -9 6 -13 -2 -13 -7 0 -8 -8 -3 -22 5 -13
7 -33 6 -45 0 -13 3 -23 9 -23 5 0 4 -7 -3 -15 -7 -8 -8 -15 -3 -15 5 0 10
-15 11 -32 2 -77 6 -98 14 -98 5 0 4 -8 -1 -19 -6 -10 -7 -21 -4 -25 8 -7 11
-26 15 -71 1 -16 7 -33 13 -37 6 -5 5 -8 -4 -8 -11 0 -11 -3 -1 -15 10 -12 10
-15 -1 -15 -11 0 -11 -2 -1 -9 7 -4 14 -26 15 -49 1 -23 4 -42 7 -42 3 0 6 -9
7 -20 1 -11 -2 -18 -7 -15 -5 3 -3 -7 5 -22 10 -18 11 -29 4 -34 -6 -4 -3 -9
7 -13 16 -6 16 -8 4 -17 -10 -6 -12 -11 -4 -16 11 -8 12 -13 15 -68 1 -13 4
-23 8 -21 6 4 7 -10 11 -86 1 -16 7 -28 13 -28 7 0 6 -4 -3 -10 -8 -5 -10 -10
-4 -10 6 0 11 -6 11 -12 0 -7 4 -22 9 -32 5 -14 4 -17 -5 -12 -8 6 -7 -2 3
-22 9 -17 16 -42 16 -57 0 -14 6 -25 13 -25 8 0 7 -4 -3 -10 -10 -6 -11 -10
-2 -10 6 0 12 -5 12 -11 0 -5 -4 -8 -10 -4 -5 3 -3 -7 5 -22 18 -33 19 -47 4
-37 -6 3 -3 -5 6 -19 9 -15 14 -31 10 -37 -3 -5 -1 -10 5 -10 6 0 8 -5 5 -10
-4 -6 -1 -18 7 -27 11 -14 11 -16 -2 -8 -13 8 -13 6 -1 -8 7 -9 11 -24 7 -32
-4 -11 -2 -14 6 -9 8 5 9 2 5 -9 -3 -10 -2 -17 4 -17 6 0 7 -5 4 -10 -4 -6 -1
-18 7 -27 11 -14 11 -16 -2 -8 -12 7 -13 6 -3 -7 7 -8 10 -18 6 -21 -3 -4 -1
-7 7 -7 9 0 9 -4 2 -13 -7 -8 -6 -18 4 -31 7 -10 11 -23 8 -27 -3 -5 0 -9 5
-9 6 0 11 -5 11 -11 0 -5 -6 -7 -13 -3 -9 6 -9 4 1 -7 6 -7 12 -21 12 -31 0
-10 6 -18 13 -18 8 0 7 -4 -3 -10 -11 -7 -11 -10 -2 -10 7 0 11 -4 7 -9 -3 -5
-1 -12 4 -16 6 -3 7 -13 4 -22 -4 -11 -3 -14 5 -9 7 4 12 3 12 -3 0 -5 -5 -13
-11 -16 -7 -5 -5 -13 6 -25 13 -14 13 -19 3 -23 -9 -4 -8 -6 4 -6 11 -1 15 -8
14 -26 -2 -15 1 -22 7 -18 6 4 8 0 4 -9 -3 -9 0 -21 6 -28 9 -10 9 -11 -1 -6
-7 4 -3 -9 8 -29 12 -21 15 -34 8 -30 -7 4 -5 0 4 -8 10 -8 15 -17 12 -20 -4
-3 -3 -14 1 -24 4 -10 9 -26 10 -36 1 -11 8 -23 16 -28 12 -7 12 -9 -1 -9 -13
0 -13 -1 0 -10 8 -5 12 -10 7 -10 -4 0 -1 -13 7 -29 12 -22 12 -31 3 -40 -9
-10 -9 -12 3 -9 8 2 14 -3 13 -9 -2 -7 3 -13 10 -13 8 0 7 -4 -3 -10 -10 -6
-11 -10 -2 -10 6 0 12 -9 12 -20 0 -11 5 -20 11 -20 5 0 7 -5 3 -11 -3 -6 0
-15 7 -20 12 -7 12 -9 0 -9 -11 0 -10 -4 4 -20 9 -10 15 -26 12 -35 -4 -10 -1
-15 11 -15 15 0 15 -2 2 -10 -10 -6 -11 -10 -2 -10 6 0 12 -10 12 -23 0 -28
22 -77 34 -77 5 0 2 -8 -5 -17 -10 -11 -10 -14 -2 -9 12 6 18 -11 14 -37 0 -4
3 -7 8 -7 8 0 37 -89 33 -102 -1 -5 3 -8 9 -8 6 0 9 -7 5 -15 -3 -8 2 -19 12
-24 9 -6 13 -11 8 -11 -5 0 -2 -8 5 -17 9 -11 10 -14 2 -9 -9 5 -11 2 -7 -8 3
-9 10 -16 15 -16 5 0 9 -12 9 -26 0 -14 4 -23 10 -19 9 5 15 -23 11 -47 0 -5
4 -8 9 -8 6 0 10 -9 10 -21 0 -11 4 -18 8 -15 4 2 9 -4 10 -15 1 -10 3 -28 4
-38 1 -11 6 -17 10 -15 4 3 8 -4 8 -15 0 -12 5 -21 11 -21 5 0 7 -4 4 -10 -3
-5 -2 -10 4 -10 6 0 7 -7 4 -17 -5 -12 -3 -14 7 -8 10 6 12 3 8 -13 -4 -12 -2
-22 3 -22 5 0 9 -5 9 -11 0 -7 8 -18 18 -25 16 -13 16 -14 -3 -8 -17 5 -18 4
-5 -8 8 -7 16 -20 18 -28 2 -8 8 -16 13 -18 5 -2 9 -15 9 -28 0 -13 5 -24 11
-24 5 0 7 -5 4 -10 -3 -6 0 -13 9 -16 8 -3 13 -14 11 -25 -2 -10 1 -19 6 -19
6 0 7 -4 4 -10 -3 -5 -1 -10 4 -10 6 0 11 -9 11 -20 0 -11 3 -20 8 -20 4 0 12
-11 19 -25 8 -19 8 -23 0 -18 -7 3 -3 -4 8 -17 18 -21 18 -23 2 -17 -13 5 -16
3 -10 -6 13 -21 12 -37 -3 -37 -12 0 -12 -4 -4 -20 8 -16 8 -18 -4 -14 -11 4
-14 0 -11 -15 2 -11 0 -23 -6 -26 -5 -4 -9 -1 -9 6 0 7 -3 9 -6 6 -4 -4 -1
-13 6 -22 11 -14 7 -19 -13 -16 -11 2 -8 -14 6 -28 10 -10 9 -11 -6 -5 -13 5
-16 2 -11 -10 4 -11 1 -16 -10 -16 -14 0 -15 -4 -6 -20 9 -16 8 -20 -5 -20 -8
0 -15 -5 -15 -11 0 -5 4 -7 10 -4 6 3 7 -1 4 -9 -3 -9 -10 -16 -16 -16 -5 0
-6 -4 -3 -10 3 -5 1 -10 -5 -10 -6 0 -8 -5 -5 -10 3 -6 2 -10 -4 -10 -6 0 -7
-7 -4 -17 4 -10 2 -14 -5 -9 -6 3 -13 2 -17 -4 -3 -5 -1 -10 5 -10 5 0 -1 -17
-14 -39 -18 -28 -22 -41 -13 -50 8 -8 8 -11 -2 -11 -8 0 -11 -6 -7 -16 5 -14
4 -15 -8 -5 -12 10 -13 9 -9 -8 3 -12 0 -27 -6 -34 -6 -8 -7 -18 -3 -22 4 -5
-2 -5 -13 -1 -15 6 -17 4 -8 -5 12 -12 6 -42 -7 -34 -5 3 -6 -4 -3 -15 6 -24
-14 -53 -31 -43 -6 4 -5 -1 3 -10 9 -11 10 -17 2 -17 -6 0 -10 -3 -10 -7 4
-22 -2 -33 -13 -27 -9 5 -9 3 1 -9 11 -14 11 -18 -3 -23 -14 -5 -14 -9 -4 -22
7 -9 8 -13 3 -10 -6 4 -17 3 -25 -3 -12 -7 -12 -9 3 -9 10 0 15 -5 12 -10 -4
-6 -10 -8 -15 -5 -5 3 -12 0 -16 -6 -4 -8 -3 -9 4 -5 18 11 14 -10 -4 -28 -8
-9 -12 -16 -8 -16 3 0 0 -8 -7 -17 -12 -14 -12 -16 1 -9 8 4 4 -1 -10 -12 -20
-17 -22 -23 -12 -35 10 -12 10 -17 1 -23 -8 -5 -10 -3 -5 7 4 8 0 5 -8 -5 -13
-16 -13 -22 -3 -35 9 -12 9 -13 0 -7 -12 6 -18 -11 -14 -36 0 -5 -3 -8 -8 -8
-8 0 -24 -37 -22 -53 1 -4 -7 -7 -17 -7 -9 0 -13 -4 -7 -8 25 -18 13 -37 -20
-33 -5 1 -1 -6 9 -14 19 -14 11 -21 -18 -16 -5 1 -4 -5 4 -13 9 -12 9 -16 1
-16 -7 0 -9 -5 -6 -10 3 -6 -3 -23 -14 -39 -16 -22 -17 -31 -8 -40 9 -10 8
-11 -5 -6 -13 5 -15 2 -11 -17 6 -21 5 -22 -12 -8 -12 10 -16 10 -11 2 4 -7 2
-20 -6 -30 -12 -16 -11 -16 6 -2 18 14 19 14 8 -7 -7 -12 -9 -30 -6 -40 5 -15
4 -15 -5 -3 -8 11 -11 12 -11 2 0 -7 -4 -10 -10 -7 -6 3 -7 -1 -4 -10 4 -9 -2
-25 -12 -37 -13 -14 -14 -19 -4 -13 12 6 13 5 3 -6 -7 -7 -13 -21 -13 -31 0
-10 -4 -18 -10 -18 -5 0 -10 -5 -10 -11 0 -5 5 -7 12 -3 7 4 8 3 4 -4 -4 -7
-15 -12 -24 -13 -14 0 -13 -2 3 -9 18 -7 18 -8 -7 -15 -16 -4 -25 -11 -22 -16
3 -5 10 -7 15 -4 5 4 9 2 9 -3 0 -6 -7 -13 -16 -16 -13 -5 -14 -9 -3 -22 7 -8
8 -14 3 -13 -22 4 -33 -2 -28 -16 4 -8 1 -15 -5 -15 -6 0 -11 -5 -11 -11 0 -5
4 -7 10 -4 6 4 7 -2 1 -17 -5 -13 -14 -22 -21 -20 -6 1 -9 -2 -6 -7 9 -14 -5
-42 -18 -34 -7 4 -7 1 1 -7 10 -11 9 -16 -5 -27 -9 -8 -12 -12 -6 -9 6 3 11
-1 11 -9 0 -8 -4 -12 -8 -10 -3 3 -13 -3 -20 -12 -12 -15 -12 -16 5 -10 16 6
17 5 6 -8 -7 -8 -16 -13 -20 -10 -4 2 -5 -7 -2 -20 2 -15 0 -25 -7 -25 -7 0
-9 -4 -6 -10 3 -5 1 -10 -5 -10 -6 0 -8 -5 -4 -12 5 -8 1 -9 -12 -5 -17 6 -17
6 -3 -5 14 -12 14 -15 -2 -32 -10 -10 -16 -23 -13 -27 3 -5 0 -9 -5 -9 -6 0
-11 -5 -11 -11 0 -5 4 -8 9 -5 5 4 4 -7 -2 -24 -6 -16 -15 -30 -20 -30 -4 0
-5 5 -1 12 4 7 3 8 -5 4 -9 -6 -9 -11 -1 -21 8 -9 8 -15 0 -20 -5 -3 -10 -1
-10 6 0 7 -3 9 -6 6 -4 -4 -1 -13 6 -22 10 -12 9 -16 -3 -21 -9 -3 -14 -14
-12 -25 2 -11 0 -17 -4 -14 -5 3 -11 -2 -14 -9 -3 -8 -1 -17 6 -20 7 -2 5 -5
-5 -5 -9 -1 -20 -6 -24 -13 -5 -8 -2 -9 9 -5 14 5 14 1 -3 -28 -10 -18 -16
-36 -13 -39 4 -3 -2 -6 -13 -6 -16 0 -17 -2 -4 -10 11 -7 11 -10 2 -10 -7 0
-10 -4 -7 -10 7 -12 -7 -13 -21 -2 -5 4 -1 -1 9 -10 16 -15 17 -18 3 -18 -9 0
-13 -6 -10 -14 3 -7 -2 -16 -11 -20 -13 -5 -14 -10 -4 -27 8 -15 8 -19 0 -15
-6 4 -11 2 -11 -4 0 -6 -4 -9 -9 -6 -4 3 -6 -6 -3 -21 3 -18 1 -24 -6 -19 -8
5 -10 2 -6 -8 3 -9 2 -16 -3 -16 -10 0 -13 -14 -15 -60 0 -14 -3 -19 -5 -12
-8 21 -21 13 -16 -10 4 -19 3 -20 -6 -8 -7 9 -11 10 -11 3 0 -6 5 -15 11 -18
6 -5 5 -11 -5 -18 -9 -7 -17 -23 -19 -36 -2 -14 -9 -27 -16 -29 -9 -3 -9 -8 1
-20 8 -9 8 -13 2 -9 -13 8 -27 -19 -18 -34 3 -5 -2 -9 -10 -9 -9 0 -16 -4 -16
-10 0 -5 5 -10 10 -10 6 0 5 -6 -2 -14 -7 -8 -16 -12 -19 -10 -3 2 -6 -3 -6
-11 0 -8 4 -12 9 -9 4 3 8 1 8 -4 0 -6 -7 -13 -16 -16 -8 -3 -13 -10 -9 -15 3
-6 -3 -14 -12 -20 -10 -6 -15 -11 -10 -11 4 0 0 -15 -8 -32 l-16 -33 21 25 21
25 -12 -27 c-7 -16 -15 -28 -19 -28 -4 0 -6 -16 -5 -35 1 -28 -1 -32 -12 -23
-11 8 -12 7 -7 -6 3 -9 10 -16 15 -16 14 0 11 -30 -3 -31 -7 0 -2 -5 11 -10
13 -5 21 -15 18 -23 -4 -9 2 -12 18 -10 17 1 22 -2 18 -12 -3 -10 0 -12 10 -8
8 3 18 0 22 -5 3 -6 11 -9 16 -6 5 4 12 0 15 -8 3 -9 13 -13 26 -9 14 3 19 1
14 -6 -4 -7 -2 -12 3 -12 6 0 11 5 11 11 0 6 7 3 16 -5 14 -15 28 -20 46 -17
5 0 8 -4 8 -10 0 -5 4 -7 10 -4 5 3 10 1 10 -4 0 -6 9 -11 19 -11 11 0 22 -4
26 -10 3 -5 12 -7 20 -3 11 4 13 1 8 -13 -6 -17 -5 -17 10 -6 17 14 42 8 32
-8 -3 -5 0 -12 6 -16 8 -4 9 -3 5 4 -4 7 -1 12 8 12 8 0 18 -4 21 -10 3 -5 15
-10 25 -10 10 0 20 -4 22 -10 1 -5 15 -11 31 -12 19 -2 27 -8 28 -23 0 -11 3
-14 6 -7 7 17 42 15 49 -2 3 -9 12 -12 21 -9 9 4 14 2 10 -3 -3 -5 6 -11 21
-12 14 -1 29 -8 34 -15 6 -9 8 -9 8 2 0 9 5 7 17 -6 10 -10 14 -12 8 -4 -9 12
-7 12 13 2 13 -7 20 -17 15 -24 -4 -7 1 -5 11 3 16 13 20 12 31 -4 8 -10 18
-15 24 -11 6 3 11 -1 11 -11 0 -13 3 -14 14 -5 11 9 15 9 18 -1 3 -7 15 -13
29 -13 13 0 23 -5 22 -12 -2 -7 6 -10 17 -8 21 4 73 -18 64 -28 -3 -3 8 -4 24
-3 19 1 28 -2 25 -9 -2 -7 3 -12 11 -12 8 0 12 5 9 11 -3 6 0 5 8 -1 7 -7 21
-13 31 -13 10 0 18 -4 18 -8 0 -5 18 -15 41 -22 23 -8 43 -19 45 -25 3 -7 12
-12 21 -12 13 0 13 2 -3 14 -29 21 -9 15 39 -12 25 -13 47 -21 51 -18 3 4 6 1
6 -5 0 -7 7 -12 15 -12 8 0 15 -4 15 -9 0 -4 14 -7 31 -5 16 2 27 0 24 -5 -3
-5 -1 -12 4 -15 5 -4 13 -1 17 5 5 9 11 7 20 -5 7 -10 15 -17 18 -16 15 2 55
-13 52 -19 -3 -4 4 -8 15 -8 12 -1 17 3 13 9 -5 7 -2 8 5 4 7 -5 10 -11 7 -14
-13 -12 17 -31 43 -26 18 4 32 0 40 -10 18 -21 31 -20 31 2 1 16 1 16 14 -1
12 -16 14 -16 20 -1 5 14 9 14 23 3 12 -10 14 -10 9 -1 -5 8 0 12 14 12 16 0
20 4 16 16 -5 14 -4 15 9 4 12 -10 16 -9 21 4 3 9 4 25 1 36 -3 11 -1 23 4 26
5 3 8 1 7 -4 -2 -6 1 -9 7 -9 5 1 9 8 7 15 -2 6 4 12 13 12 12 0 14 4 5 19 -7
14 -7 22 2 27 7 5 8 3 3 -6 -5 -8 -4 -11 3 -7 5 4 8 16 5 27 -3 12 0 20 6 20
7 0 10 4 6 9 -3 5 2 16 10 24 17 18 20 31 4 22 -6 -4 -5 4 3 16 7 13 19 28 27
33 10 6 11 10 1 16 -10 6 -10 12 0 26 10 16 11 16 6 2 -3 -10 0 -18 5 -18 7 0
9 11 7 25 -3 14 -1 25 4 25 6 0 8 7 4 15 -3 8 2 18 10 23 9 5 15 12 15 15 -3
21 0 27 12 21 9 -6 9 -4 -1 8 -10 13 -10 17 4 22 13 5 14 9 5 20 -9 11 -9 16
0 22 8 5 10 3 4 -7 -6 -11 -5 -11 5 -2 7 6 14 22 15 35 1 13 3 29 4 36 0 7 6
10 11 7 6 -3 10 2 10 12 0 11 6 25 13 32 10 11 9 12 -3 6 -13 -8 -13 -6 -2 8
8 9 11 20 9 25 -3 4 -1 14 5 22 8 12 9 12 4 -3 -3 -11 -2 -16 4 -12 6 3 10 20
10 36 0 17 4 28 9 25 5 -4 8 2 7 11 -2 10 3 24 11 31 11 11 11 17 2 28 -10 12
-9 13 6 8 14 -6 16 -3 10 17 -5 18 -4 21 4 9 12 -16 14 -9 11 29 -1 19 2 23
17 17 17 -6 17 -5 0 8 -16 12 -16 14 -1 20 9 3 14 13 11 20 -3 8 1 17 8 20 9
3 12 12 8 22 -4 12 -3 15 5 10 8 -4 10 -2 6 7 -3 8 2 17 10 20 10 4 13 15 10
33 -4 22 -2 25 12 20 14 -5 15 -4 4 9 -9 11 -9 15 -1 15 7 0 10 4 6 9 -3 5 2
17 11 25 13 13 14 19 4 32 -11 12 -10 13 4 8 12 -5 15 -2 9 12 -5 13 -3 15 8
9 11 -7 11 -5 -1 10 -9 11 -10 16 -2 11 7 -4 12 -2 12 4 0 6 6 8 13 4 9 -5 9
-4 0 6 -12 13 -7 40 9 40 5 0 6 -5 2 -12 -5 -7 -3 -8 6 -3 10 6 10 10 -3 20
-14 10 -13 12 4 23 11 7 17 17 14 22 -6 9 13 50 29 61 4 4 1 11 -9 16 -16 9
-16 11 -1 16 12 5 15 3 10 -6 -5 -8 -2 -7 9 2 11 9 15 21 11 37 -4 15 -2 24 6
24 6 0 9 4 5 9 -3 5 1 16 9 24 8 8 13 17 10 20 -3 3 3 18 13 34 17 28 17 28
-2 14 -11 -8 -8 -2 8 13 15 15 25 32 21 37 -3 5 2 21 11 36 12 17 13 23 4 18
-8 -5 -6 1 4 12 10 12 19 34 21 49 3 27 36 50 36 25 0 -10 22 -37 88 -108 17
-19 29 -40 25 -46 -3 -7 -3 -9 1 -5 11 9 57 -42 49 -55 -3 -6 -1 -7 5 -3 8 4
12 0 12 -11 0 -15 2 -16 10 -3 8 13 10 12 10 -2 0 -10 5 -18 10 -18 6 0 10 -5
10 -11 0 -16 26 -39 35 -31 5 4 5 -2 1 -13 -4 -11 -4 -17 -1 -13 8 7 51 -33
48 -44 -2 -4 6 -10 17 -13 11 -4 18 -11 15 -16 -4 -5 -1 -9 5 -9 6 0 8 -4 5
-10 -3 -5 0 -10 8 -10 15 0 32 -27 28 -43 -1 -5 3 -5 9 -2 14 8 41 -26 33 -40
-4 -5 -3 -7 1 -3 11 9 76 -58 77 -79 0 -10 3 -13 6 -6 3 10 8 10 19 -1 8 -8
14 -18 14 -23 0 -4 13 -17 29 -28 17 -11 28 -21 26 -23 -5 -5 21 -32 30 -32 4
0 13 -6 21 -14 11 -11 11 -16 1 -19 -7 -3 -5 -6 6 -6 9 -1 17 -5 17 -11 0 -5
7 -10 16 -10 8 0 13 -4 9 -10 -3 -5 6 -15 19 -22 14 -7 25 -16 25 -20 1 -5 1
-13 1 -19 0 -5 4 -8 9 -4 5 3 16 -4 24 -15 7 -11 17 -17 20 -13 4 3 7 -1 7
-10 0 -10 5 -17 10 -17 6 0 10 -8 11 -17 0 -10 3 -13 6 -6 3 10 7 10 18 0 7
-7 11 -15 8 -20 -2 -4 3 -7 11 -7 15 0 21 -12 17 -33 -1 -5 3 -5 9 -2 12 8 61
-40 52 -50 -4 -3 2 -3 12 1 12 4 17 4 13 -2 -3 -5 9 -21 26 -34 17 -14 38 -33
46 -42 9 -10 22 -18 30 -18 8 0 12 -3 9 -6 -10 -9 32 -45 44 -38 6 4 8 3 5 -3
-7 -11 38 -55 47 -46 3 4 6 1 6 -6 0 -15 26 -42 33 -35 2 3 14 -6 25 -20 11
-15 23 -26 27 -26 3 0 13 -7 21 -15 9 -8 12 -15 8 -15 -4 0 11 -12 32 -26 42
-29 52 -36 103 -86 19 -18 31 -26 26 -18 -4 8 7 -1 25 -20 18 -19 29 -28 25
-20 -4 8 4 3 17 -12 14 -16 31 -28 38 -28 7 0 10 -7 6 -16 -3 -8 -2 -12 3 -9
5 3 26 -6 47 -20 20 -14 34 -25 30 -25 -4 0 -1 -6 6 -14 7 -8 16 -12 19 -10 4
2 14 -5 24 -16 10 -11 22 -17 28 -13 5 3 8 2 5 -3 -6 -8 15 -35 27 -34 21 1
25 -1 20 -10 -3 -5 0 -10 7 -10 8 0 20 -9 28 -19 7 -11 17 -18 22 -15 4 3 11
-2 14 -11 4 -9 13 -14 21 -11 8 3 11 1 8 -4 -3 -6 -2 -10 3 -10 4 0 18 -9 30
-20 12 -12 22 -18 22 -14 0 4 8 -2 18 -12 9 -10 24 -20 32 -22 8 -2 19 -10 23
-18 4 -8 15 -14 22 -14 8 0 15 -8 15 -17 0 -14 2 -15 9 -4 7 11 10 9 16 -7 3
-12 9 -21 13 -21 19 3 33 -2 28 -10 -3 -5 6 -12 19 -15 14 -4 23 -11 20 -16
-4 -6 1 -7 11 -3 13 5 16 2 11 -9 -4 -12 -1 -14 15 -10 14 3 19 1 14 -6 -5 -8
0 -12 14 -12 11 0 23 -6 26 -14 3 -8 17 -17 30 -20 14 -4 22 -11 19 -16 -3 -6
1 -10 9 -10 9 0 16 -4 16 -10 0 -5 3 -9 8 -9 19 3 33 -2 27 -11 -6 -9 8 -14
27 -11 5 0 8 -4 8 -9 0 -6 7 -10 16 -10 9 0 12 -5 8 -12 -4 -6 -3 -8 4 -4 6 3
17 -1 25 -9 9 -8 21 -15 27 -15 6 0 8 -5 5 -10 -4 -6 -3 -9 2 -8 16 4 51 -13
57 -27 3 -8 12 -15 21 -15 8 0 15 -5 15 -12 0 -6 3 -8 7 -5 3 4 13 1 22 -7 9
-8 23 -16 31 -18 8 -2 21 -11 28 -21 7 -9 22 -17 33 -17 10 0 19 -4 19 -10 0
-5 9 -10 21 -10 11 0 17 -5 14 -10 -3 -6 2 -10 13 -10 10 0 28 -9 39 -19 12
-11 24 -17 27 -14 3 4 6 1 6 -6 0 -7 5 -9 10 -6 6 3 10 2 10 -3 0 -6 14 -15
31 -21 17 -6 28 -15 24 -21 -3 -6 0 -7 9 -4 9 3 16 2 16 -4 0 -6 8 -8 19 -5
10 3 22 -1 26 -8 6 -8 4 -10 -6 -4 -11 6 -11 5 -3 -4 6 -7 19 -14 28 -15 10
-1 22 -9 27 -17 7 -12 9 -12 9 0 0 8 9 3 20 -12 13 -16 28 -24 40 -22 11 2 20
0 20 -6 0 -5 7 -9 16 -9 9 0 12 -5 8 -12 -5 -7 -3 -8 6 -3 8 5 18 1 27 -11 8
-10 17 -19 21 -19 4 0 6 -4 4 -9 -2 -5 4 -4 12 4 11 8 16 9 16 1 0 -6 8 -11
18 -11 10 0 28 -9 39 -19 12 -11 23 -18 26 -15 2 2 10 -2 17 -11 7 -8 21 -15
31 -15 11 0 19 -4 19 -8 0 -4 10 -9 22 -9 13 -1 24 -7 26 -13 2 -5 12 -10 22
-10 10 0 22 -5 26 -12 5 -7 3 -8 -6 -3 -8 5 -11 4 -7 -3 4 -5 16 -8 27 -5 11
3 20 0 20 -6 0 -6 6 -11 14 -11 8 0 17 -6 19 -12 4 -10 6 -9 6 1 1 10 7 7 20
-8 14 -16 21 -18 24 -9 4 11 6 10 6 0 1 -7 6 -10 11 -7 6 3 10 1 10 -6 0 -7 3
-10 6 -6 4 3 13 -1 21 -9 8 -8 19 -12 24 -9 5 4 9 1 9 -5 0 -6 4 -9 9 -6 5 3
12 -1 15 -10 5 -13 9 -14 20 -5 17 14 32 -2 20 -21 -4 -6 -3 -8 3 -5 17 10 74
-4 66 -16 -4 -6 0 -8 10 -4 10 3 17 2 17 -2 0 -5 7 -12 16 -15 10 -4 13 -2 9
7 -4 6 1 3 9 -7 9 -11 16 -16 16 -11 0 4 10 0 22 -11 13 -12 18 -13 13 -4 -7
12 -6 13 7 3 8 -7 18 -10 21 -6 4 3 7 1 7 -5 0 -7 9 -12 19 -12 11 0 21 -4 23
-10 1 -5 15 -11 31 -12 15 -1 27 -8 27 -16 0 -7 4 -11 8 -8 9 5 64 -12 98 -31
12 -7 24 -9 28 -6 3 3 6 0 6 -7 0 -7 3 -11 6 -7 4 3 19 0 35 -8 16 -9 39 -16
53 -17 13 -1 22 -6 19 -12 -3 -5 5 -7 20 -4 14 3 25 1 24 -5 -1 -5 7 -11 17
-13 10 -1 23 -9 27 -16 7 -10 9 -10 9 2 0 9 3 11 8 5 4 -6 27 -17 52 -25 25
-8 48 -19 52 -25 5 -6 8 -5 8 3 0 10 4 9 16 -3 9 -9 22 -14 30 -11 7 3 14 0
16 -5 2 -5 13 -11 26 -12 12 0 22 -5 22 -9 0 -4 13 -8 29 -8 17 0 33 -5 36
-10 3 -6 17 -10 31 -10 13 0 24 -5 24 -12 0 -6 3 -8 7 -5 3 4 13 1 21 -6 13
-9 14 -9 8 0 -5 9 -2 11 8 7 9 -3 14 -9 11 -14 -2 -4 7 -6 20 -4 14 1 25 -2
25 -7 0 -6 4 -8 9 -4 5 3 13 1 16 -5 5 -8 12 -7 23 2 9 7 13 8 10 3 -4 -6 5
-15 18 -22 18 -8 22 -8 18 0 -5 8 -2 7 7 -1 7 -6 23 -12 36 -12 13 0 23 -4 23
-9 0 -5 8 -8 18 -7 9 2 23 -4 30 -13 8 -9 11 -10 7 -3 -4 7 0 12 9 12 9 0 16
-5 16 -11 0 -7 9 -9 21 -6 16 4 19 2 14 -11 -5 -13 -3 -14 5 -6 13 13 68 -2
82 -21 5 -6 8 -4 8 5 0 13 1 13 10 0 7 -11 10 -12 10 -2 0 10 3 10 15 -1 8 -9
24 -13 35 -10 11 3 20 1 20 -5 0 -6 11 -9 25 -8 15 2 22 -1 18 -7 -4 -6 0 -8
10 -4 10 3 17 2 17 -2 0 -5 11 -8 25 -6 14 1 25 -1 25 -6 0 -4 9 -6 20 -4 11
2 20 -1 20 -7 0 -6 9 -8 20 -5 12 3 24 -1 30 -11 7 -12 9 -13 10 -3 0 11 3 11
17 0 15 -12 16 -12 8 1 -6 12 -5 13 6 2 7 -6 21 -12 32 -12 12 0 16 -4 11 -12
-5 -10 -4 -10 6 -1 8 8 21 8 40 2 15 -6 40 -11 56 -13 16 -2 33 -4 37 -5 5 0
5 -7 1 -13 -6 -10 -5 -10 7 -1 9 7 20 8 28 3 8 -4 21 -6 29 -2 9 3 13 1 9 -4
-3 -6 12 -10 37 -9 31 0 42 -3 39 -13 -4 -9 1 -10 18 -3 17 6 31 4 49 -8 20
-13 23 -14 15 -1 -7 12 -6 13 7 3 8 -7 18 -10 21 -6 4 3 7 1 7 -7 0 -10 3 -10
14 -1 11 9 16 9 21 1 4 -7 16 -10 26 -7 11 3 19 2 19 -3 0 -4 11 -6 25 -5 14
2 27 0 30 -5 3 -4 21 -8 40 -8 20 0 43 -6 52 -14 15 -11 16 -11 10 6 -6 16 -5
17 8 6 9 -7 35 -15 58 -17 23 -3 47 -9 53 -14 8 -7 15 -6 19 1 5 8 11 8 21 -1
11 -9 14 -8 14 2 0 8 6 5 15 -7 11 -14 14 -15 15 -4 0 13 1 13 10 0 9 -13 10
-13 10 0 1 12 3 11 14 -3 9 -12 15 -14 18 -6 3 9 9 9 27 -1 18 -9 22 -9 16 0
-5 9 -3 9 11 2 11 -5 27 -8 37 -7 9 2 17 -2 17 -8 0 -8 3 -7 9 2 6 9 11 10 15
3 4 -6 14 -8 23 -5 12 5 14 3 8 -7 -6 -10 -4 -11 6 -4 21 13 39 14 39 2 0 -7
4 -7 13 0 8 7 18 6 31 -3 13 -10 24 -11 37 -4 14 7 19 6 19 -2 0 -8 5 -7 17 2
9 8 14 9 10 3 -4 -7 0 -15 9 -18 8 -3 12 -2 9 4 -3 5 4 8 15 7 11 -1 20 -5 20
-10 0 -5 7 -4 15 3 8 7 15 8 15 3 0 -5 17 -9 38 -8 20 0 43 -4 50 -9 8 -5 12
-4 12 5 0 12 2 12 9 0 6 -9 10 -10 16 -2 5 9 10 9 21 0 8 -6 14 -8 14 -4 0 4
8 1 17 -6 11 -10 14 -10 9 -1 -4 6 -3 12 3 12 5 0 13 -5 16 -10 4 -7 12 -7 24
0 10 5 21 7 24 4 11 -11 42 -11 56 0 12 9 13 8 6 -3 -6 -11 -3 -13 13 -9 12 3
23 1 26 -6 3 -7 5 -6 5 3 1 11 4 11 16 1 9 -7 15 -8 15 -2 0 12 38 4 59 -12
11 -8 13 -8 8 1 -4 6 -3 14 3 18 5 3 10 2 10 -3 0 -6 10 -8 22 -4 16 4 19 2
13 -8 -6 -9 -4 -11 6 -5 20 13 119 13 119 0 0 -5 5 -3 10 5 5 8 10 10 10 5 0
-6 9 -11 20 -12 11 -1 18 2 15 7 -3 5 9 5 27 -1 41 -11 41 -11 32 3 -5 7 -3 8
6 3 19 -12 273 -13 288 -2 8 6 12 6 12 -1 0 -11 40 -10 60 3 9 5 11 4 6 -3 -9
-15 -1 -15 25 -2 13 8 19 7 19 0 0 -7 6 -8 19 0 25 13 34 13 25 -1 -4 -8 -1
-8 12 -1 25 13 36 13 53 -1 11 -9 13 -9 8 -1 -9 15 55 14 65 -1 5 -6 8 -5 8 3
0 8 13 13 38 12 67 -1 107 4 114 15 5 7 8 6 8 -2 0 -6 9 -11 20 -10 11 1 20 4
20 7 0 8 32 6 46 -2 5 -4 16 -3 24 2 9 5 20 4 29 -3 12 -10 13 -9 6 2 -6 11
-4 13 8 8 10 -4 17 -2 17 5 0 7 4 7 14 -1 11 -9 16 -9 21 0 6 8 10 7 16 -2 6
-9 9 -10 9 -2 0 7 13 10 33 9 17 -2 35 2 40 8 4 7 10 8 15 1 10 -13 35 -18 27
-5 -9 14 8 13 24 -2 11 -11 12 -10 6 1 -6 11 -1 13 24 9 17 -2 31 -1 31 3 0 4
8 6 18 4 9 -1 27 2 40 6 13 5 21 5 18 1 -6 -10 21 -8 46 2 9 4 21 5 27 2 5 -4
12 -2 16 4 4 6 11 8 16 5 5 -4 15 -3 21 1 16 10 48 13 48 4 0 -4 7 -7 15 -7 8
0 11 5 8 10 -4 6 2 8 15 5 12 -4 24 -3 27 2 2 4 16 6 30 5 14 -2 25 2 25 8 0
8 3 7 9 -2 5 -8 11 -9 15 -3 3 6 17 9 31 7 14 -1 25 3 25 9 0 6 5 4 10 -4 7
-12 10 -12 10 -1 0 7 6 11 13 8 8 -3 20 -1 28 3 8 6 16 4 21 -3 6 -9 8 -9 8 0
0 7 7 10 15 7 9 -4 15 0 15 7 0 11 3 11 10 -1 6 -9 10 -10 10 -3 0 6 9 10 20
8 11 -2 20 1 20 7 0 6 7 5 17 -3 9 -8 14 -9 10 -3 -4 7 0 15 9 18 8 3 12 2 9
-4 -3 -6 -2 -10 4 -10 5 0 13 5 16 10 4 6 11 8 16 4 5 -3 17 0 26 8 14 11 16
11 8 -1 -6 -10 -4 -12 5 -6 14 8 49 15 88 18 12 0 22 5 22 10 0 4 9 5 20 2 13
-4 20 -2 20 6 0 10 3 10 12 1 9 -9 16 -8 32 6 14 12 17 13 11 2 -8 -13 -7 -13
8 -1 14 11 17 11 17 0 0 -11 2 -11 10 1 5 8 17 15 27 15 10 0 24 4 32 9 11 7
12 6 6 -5 -7 -11 -5 -11 10 1 10 8 20 14 22 13 1 -2 4 -3 6 -2 1 0 11 2 22 4
54 7 79 15 87 27 5 9 8 9 8 1 0 -8 9 -9 30 -2 16 5 44 13 60 18 17 5 28 5 25
1 -3 -5 7 -3 21 5 15 8 31 12 36 9 4 -3 8 0 8 6 0 6 5 8 10 5 6 -4 23 0 40 8
21 11 30 12 34 3 3 -8 7 -8 13 1 5 7 19 14 31 16 12 2 25 6 28 10 4 4 14 1 22
-6 13 -9 14 -9 8 1 -5 8 0 12 13 12 12 0 21 6 21 13 0 8 3 7 10 -3 8 -12 10
-12 16 4 5 14 9 15 15 4 6 -9 9 -10 9 -1 0 7 6 10 14 7 8 -3 17 0 21 5 3 6 11
9 16 6 5 -4 9 -2 9 3 0 5 13 8 30 7 16 -1 27 2 23 7 -3 5 3 8 13 7 11 -2 29 3
42 9 12 7 27 10 32 7 6 -3 10 -1 10 5 0 7 7 10 15 6 8 -3 15 -1 15 5 0 6 4 8
9 5 5 -4 12 0 14 6 4 9 6 9 6 -1 1 -11 5 -10 17 5 8 10 12 12 8 4 -7 -12 -5
-13 8 -3 8 7 18 10 21 6 4 -3 7 -1 7 6 0 7 4 10 9 6 5 -3 12 -1 16 4 3 6 12 8
20 4 8 -3 15 0 15 6 0 6 6 8 14 5 8 -3 17 0 21 5 3 6 11 9 16 6 5 -4 9 -1 9 4
0 6 3 10 8 9 17 -4 72 15 72 25 0 7 4 6 10 -3 6 -9 10 -10 10 -3 0 7 16 15 35
19 19 3 35 10 35 15 0 4 9 6 20 4 11 -2 20 1 20 7 0 6 3 8 7 5 3 -4 17 0 30 8
13 9 28 13 33 10 6 -3 10 -1 10 5 0 6 4 9 9 6 5 -4 11 -2 13 4 1 5 16 11 32
12 15 1 31 8 33 15 3 7 9 10 14 7 6 -3 16 0 24 6 8 7 15 9 15 4 0 -5 5 -2 10
6 8 13 10 13 10 0 0 -9 6 -6 16 9 11 15 20 19 27 12 6 -6 14 -5 24 5 8 8 19
12 24 9 5 -4 9 -1 9 5 0 6 5 8 10 5 6 -3 10 -1 10 5 0 6 4 9 9 5 5 -3 15 1 23
8 7 8 19 12 26 9 6 -2 12 1 12 7 0 6 3 10 8 9 4 -1 25 6 46 15 22 10 41 15 44
12 3 -2 11 3 19 13 8 9 11 11 8 4 -6 -11 -3 -11 16 0 13 7 32 19 41 27 10 8
18 11 18 7 0 -4 10 -1 23 6 12 7 25 11 30 10 4 -1 7 3 7 9 0 6 6 9 14 6 8 -3
17 1 20 9 3 9 14 14 23 12 10 -2 26 5 36 16 12 14 17 15 17 5 1 -10 3 -9 10 3
6 9 19 15 30 13 11 -2 19 1 17 8 -1 7 4 11 11 10 6 -2 12 1 12 6 0 6 9 8 20 6
11 -2 18 0 15 6 -4 5 1 9 10 9 9 0 14 3 12 8 -3 4 7 8 21 9 15 0 28 6 30 12 2
6 12 11 23 11 10 0 19 5 19 11 0 5 5 7 10 4 6 -3 10 -2 10 4 0 5 14 12 30 16
17 4 30 10 30 15 0 7 35 20 45 17 2 -1 11 7 20 18 9 11 13 14 10 6 -6 -9 -1
-9 17 3 14 9 28 13 33 9 4 -5 5 -3 2 3 -8 13 40 37 55 28 6 -4 8 -2 5 3 -8 12
20 26 34 18 5 -4 6 2 2 11 -5 13 -3 16 10 11 8 -3 17 -2 19 3 2 5 10 10 18 12
8 2 17 5 20 8 16 17 62 40 70 35 6 -3 10 1 10 10 0 9 5 13 10 10 6 -3 10 -1
10 5 0 6 5 8 10 5 6 -3 10 -1 10 5 0 6 5 8 10 5 6 -3 10 -1 10 4 0 6 6 10 13
8 6 -1 11 4 9 11 -1 8 2 11 7 8 5 -4 13 -1 16 5 4 5 14 8 22 5 8 -3 12 -2 9 3
-3 4 12 16 34 26 22 10 40 21 40 26 0 4 14 10 30 14 17 4 28 11 24 16 -3 5 0
10 5 10 6 1 16 2 21 3 6 0 15 8 20 16 5 8 10 11 10 5 0 -5 5 -2 11 9 9 14 13
15 19 6 6 -9 10 -6 15 9 4 13 12 20 19 18 7 -3 19 3 26 13 8 11 17 17 22 14 4
-3 8 0 8 6 0 6 5 8 10 5 6 -3 13 1 16 9 3 9 10 16 16 16 5 0 29 14 54 30 24
17 44 28 44 25 0 -3 12 6 26 20 14 15 32 24 40 21 9 -3 11 0 7 11 -4 11 -2 14
5 9 7 -4 12 -2 12 4 0 6 5 8 10 5 6 -3 10 -2 10 2 0 5 15 17 33 28 17 10 38
27 46 37 7 11 19 17 26 14 7 -2 16 2 19 10 3 9 11 12 18 8 7 -5 9 -2 5 8 -4
12 -1 14 15 10 13 -3 19 -1 15 5 -4 6 5 15 18 21 14 7 25 16 25 22 0 6 4 9 9
6 4 -3 17 4 27 15 23 26 60 47 49 28 -5 -8 -4 -10 3 -5 7 4 12 14 12 22 0 8 6
14 13 14 7 0 27 13 45 30 18 16 36 30 40 31 4 0 6 5 4 11 -1 5 2 7 8 3 5 -3
13 0 16 9 3 8 12 12 19 10 7 -3 19 4 25 16 6 12 17 19 25 17 7 -3 12 1 11 11
0 9 4 17 10 17 6 0 18 7 27 15 38 35 48 41 57 35 6 -3 7 1 4 9 -4 11 0 16 10
16 9 0 16 4 16 8 0 9 62 48 71 45 4 -1 6 5 5 15 0 9 5 17 12 17 7 0 17 7 22
15 5 8 10 11 10 7 0 -4 6 -2 14 5 8 7 12 16 9 20 -4 8 12 12 30 9 5 -1 6 2 3
7 -3 5 8 16 25 26 16 9 27 22 24 27 -4 5 1 9 9 9 9 0 16 5 16 12 0 6 3 8 6 5
4 -4 20 8 36 26 17 17 27 25 23 17 -3 -8 1 -6 9 4 9 11 16 24 16 30 0 5 3 6 7
3 3 -4 19 7 35 25 15 17 28 27 28 22 1 -5 7 2 15 16 8 14 14 21 15 17 0 -5 13
4 29 20 16 15 27 31 25 35 -3 4 4 5 15 3 14 -2 18 1 14 11 -3 9 1 14 12 14 9
0 13 5 10 10 -3 6 1 10 9 10 9 0 16 7 16 15 0 8 9 15 20 15 13 0 18 5 13 15
-3 9 -2 15 3 13 13 -4 64 43 64 60 0 8 6 12 14 9 8 -3 19 5 26 18 7 14 17 22
22 19 4 -3 8 -1 8 5 0 14 47 60 54 53 3 -3 6 2 6 10 0 9 15 26 34 39 19 13 32
27 30 31 -3 4 2 8 11 8 9 0 14 4 10 9 -3 5 4 12 15 16 11 4 18 11 15 16 -4 5
-1 9 5 9 6 0 8 5 5 10 -4 6 -1 9 7 8 7 -2 12 3 10 10 -1 8 2 11 8 7 5 -3 13 1
16 10 4 9 12 14 19 11 9 -3 11 2 7 16 -3 12 -1 19 5 15 5 -3 15 3 23 13 8 10
18 16 23 13 6 -3 7 -1 3 5 -8 14 22 44 36 36 7 -4 8 -2 4 4 -3 6 14 31 39 56
25 25 45 50 45 56 0 5 7 10 16 10 8 0 12 5 9 10 -3 6 1 13 10 16 9 4 21 17 26
30 4 13 16 24 24 24 9 0 14 4 10 9 -3 6 4 15 15 21 11 6 19 15 17 19 -1 5 2 8
6 8 5 -1 15 10 23 26 8 15 19 27 25 27 6 0 7 5 4 10 -3 6 2 10 11 10 10 0 15
3 11 6 -3 3 5 16 18 29 14 12 21 26 17 30 -4 5 1 5 11 2 10 -4 16 -3 12 2 -6
11 5 42 14 37 3 -2 15 6 26 17 11 11 13 17 5 12 -8 -4 -3 5 13 19 15 15 25 31
22 37 -4 5 0 9 7 9 14 0 54 40 40 40 -4 0 1 5 11 11 9 5 17 17 17 24 0 8 6 14
13 12 6 -1 11 4 10 10 -2 7 11 26 27 43 17 17 28 35 25 40 -5 8 23 25 37 22 4
-1 5 4 2 12 -3 7 2 19 10 26 9 7 13 17 9 24 -4 6 2 4 13 -4 10 -8 16 -10 12
-6 -4 5 -2 16 5 24 10 13 9 14 -3 8 -8 -4 -3 4 12 17 15 14 24 28 21 31 -4 3
0 6 7 6 7 0 11 3 7 6 -5 6 10 28 46 66 9 10 14 18 10 18 -3 0 4 8 15 19 12 10
22 23 22 28 0 5 10 20 23 33 12 14 22 27 22 30 2 15 37 70 45 70 6 0 10 5 10
11 0 7 9 20 21 30 11 10 18 22 15 27 -3 6 1 12 9 16 8 3 15 13 15 21 0 9 5 13
10 10 6 -3 10 1 10 10 0 22 35 66 45 57 5 -4 5 -1 0 7 -5 9 0 20 16 33 13 11
18 17 11 13 -11 -6 -11 -3 -1 13 7 12 17 18 23 15 5 -3 6 -1 3 4 -4 6 3 23 15
39 13 15 16 24 8 20 -8 -5 -4 3 10 16 14 14 29 23 33 21 5 -3 4 5 -3 17 -7 13
-8 20 -2 16 6 -3 13 3 17 14 3 11 11 20 17 20 6 0 8 3 5 7 -4 3 1 12 11 20 11
10 12 12 2 8 -8 -4 -5 2 7 13 12 11 20 22 17 25 -4 3 6 21 20 40 14 19 26 39
26 46 0 7 5 9 12 5 8 -5 9 -2 5 9 -3 10 -2 17 3 17 5 0 12 9 15 20 4 12 11 17
18 13 7 -4 6 1 -2 10 -7 9 -9 17 -3 17 5 0 21 22 34 50 14 27 28 47 31 43 4
-3 7 2 7 12 0 10 8 24 18 32 9 8 11 12 5 8 -7 -3 -13 -2 -13 3 0 6 7 13 16 16
9 4 14 13 10 21 -3 9 0 15 10 15 8 0 12 4 9 10 -3 5 -2 10 4 10 6 0 8 6 5 14
-3 8 3 20 14 27 10 8 18 24 17 36 -1 13 0 21 3 19 8 -9 30 19 25 31 -3 7 0 13
7 13 6 0 9 4 5 9 -3 6 2 14 11 19 9 5 15 12 14 16 -4 13 22 66 32 66 5 0 7 4
4 9 -3 5 6 25 19 46 14 20 23 40 21 44 -3 4 4 18 15 29 11 13 15 22 8 22 -7 0
-2 9 10 19 16 14 18 21 9 24 -10 4 -10 6 0 6 6 1 12 8 12 17 0 9 5 12 12 8 7
-5 8 -3 3 6 -4 7 -2 16 6 21 11 7 11 9 1 9 -8 0 -5 8 8 22 11 12 20 30 20 40
0 10 5 18 11 18 6 0 9 7 5 15 -3 8 -1 15 5 15 6 0 7 4 4 10 -3 5 -1 10 5 10 6
0 8 5 5 10 -3 6 1 13 9 16 9 3 13 10 10 15 -3 6 -1 15 4 22 6 7 11 15 12 19 9
38 14 47 21 42 5 -3 6 2 3 10 -3 8 2 26 11 40 9 14 14 30 10 36 -4 6 -1 9 7 8
8 -2 13 6 12 20 -1 12 3 22 9 22 6 0 8 3 4 6 -3 4 1 13 9 21 8 8 12 19 9 24
-4 5 0 9 7 9 9 0 9 3 -2 10 -13 8 -13 10 1 10 12 0 15 8 13 26 -2 19 3 28 18
32 15 4 17 7 6 14 -10 7 -10 11 0 15 6 2 12 13 12 24 0 10 4 19 9 19 5 0 7 10
3 22 -4 15 -2 19 7 14 8 -5 12 -3 10 5 -3 26 1 40 10 35 5 -4 8 2 6 11 -1 10
2 23 7 30 5 7 7 17 3 23 -3 5 0 12 7 15 7 3 14 17 15 31 0 15 7 31 15 35 11 7
10 11 -2 19 -13 8 -12 10 4 10 11 0 16 3 13 7 -4 3 -1 13 6 21 10 13 9 14 -3
7 -9 -5 -7 1 5 14 11 13 18 24 16 25 -2 0 1 18 8 38 7 21 9 43 5 49 -4 8 -3 9
4 5 11 -6 16 6 13 27 0 4 3 7 8 7 5 0 8 8 7 17 -2 10 4 24 11 32 12 11 12 15
1 22 -10 7 -10 9 0 9 6 0 12 8 12 18 0 10 6 24 13 31 10 11 9 12 -3 6 -12 -7
-12 -5 1 11 9 10 14 24 12 31 -2 6 1 14 6 18 6 3 11 17 11 31 0 13 5 24 12 24
6 0 8 3 5 7 -4 3 -1 13 6 21 9 13 9 14 0 8 -7 -4 -13 -2 -13 3 0 6 5 11 11 11
7 0 9 10 6 25 -2 14 -2 23 1 20 12 -11 29 40 19 59 -6 13 -6 16 2 12 10 -6 16
13 12 37 0 4 3 7 8 7 5 0 8 8 6 18 -1 9 3 27 11 39 8 12 11 29 8 37 -3 9 -2
16 4 16 5 0 8 11 7 25 -2 15 1 23 7 19 6 -4 9 5 7 23 -2 16 4 41 13 55 12 19
14 28 5 37 -8 8 -8 11 2 11 7 0 11 6 8 15 -4 8 -2 17 4 20 5 4 7 11 4 16 -4 5
0 9 7 9 9 0 9 3 -2 10 -9 6 -11 10 -3 10 7 0 10 7 6 17 -4 10 -2 14 4 10 6 -4
9 3 7 18 -1 14 1 25 6 25 4 0 6 10 2 22 -3 15 -2 19 7 14 14 -9 11 16 -4 26
-6 5 -5 8 3 8 7 0 10 5 7 10 -3 6 -2 10 3 10 5 0 8 11 7 25 -2 14 1 27 6 31 5
3 7 10 4 15 -4 5 0 9 7 9 9 0 9 3 -2 10 -11 7 -11 10 -2 10 7 0 10 5 7 10 -3
6 0 10 7 10 10 0 9 3 -1 9 -12 8 -12 12 -2 24 7 9 11 21 10 29 -3 26 1 39 12
32 8 -4 8 0 0 15 -7 11 -8 21 -3 21 4 0 9 10 9 23 2 39 10 77 16 84 4 3 1 13
-6 21 -8 10 -8 13 -1 9 15 -9 20 7 19 65 0 30 4 43 10 38 6 -5 11 9 12 38 3
80 10 122 24 139 10 12 10 15 2 9 -16 -9 -16 -1 -2 26 8 16 8 19 -1 13 -9 -6
-9 -2 0 15 7 13 13 44 14 69 1 25 4 51 7 56 3 6 5 22 4 37 0 16 2 28 6 28 4 0
4 12 0 27 -5 19 -3 36 7 51 12 18 12 22 1 22 -12 0 -12 2 0 9 9 6 10 10 2 16
-8 4 -9 11 -3 18 15 19 21 67 8 67 -6 0 -5 4 3 9 8 6 11 16 6 31 -4 13 -3 20
2 17 5 -4 10 0 10 8 0 8 -4 15 -8 15 -5 0 -5 11 0 23 5 13 8 38 7 55 -1 18 1
32 4 32 4 0 5 18 3 40 -2 27 1 40 10 40 7 0 8 3 2 8 -13 9 -18 32 -7 32 12 0
10 44 -2 52 -7 5 -8 8 -1 8 6 0 12 26 14 58 2 31 4 71 4 87 1 17 6 36 11 44 6
10 6 12 -2 7 -16 -9 -15 7 0 22 9 9 9 12 1 12 -12 0 -12 38 1 58 4 7 2 12 -5
12 -7 0 -8 4 -2 13 5 6 8 32 7 57 -1 25 4 48 10 52 6 5 7 8 1 8 -7 0 -10 92
-9 260 0 144 -3 263 -8 266 -4 3 -5 11 -1 17 9 15 13 77 4 77 -3 0 -7 46 -8
103 -2 147 -6 191 -18 199 -6 5 -6 8 2 8 9 0 11 19 3 40 -6 15 -4 36 5 42 6 5
6 8 -2 8 -6 0 -10 9 -8 20 2 11 -1 20 -6 20 -6 0 -7 5 -4 10 4 6 12 7 18 3 7
-4 6 1 -2 11 -8 9 -15 41 -16 69 0 29 -4 57 -8 64 -4 6 -1 14 5 16 10 4 10 6
1 6 -7 1 -13 10 -13 21 0 11 6 20 13 20 8 0 7 3 -3 9 -8 6 -14 25 -13 48 0 21
-4 41 -10 45 -7 4 -7 11 2 22 8 9 9 16 4 16 -6 0 -10 8 -10 18 0 47 -4 63 -14
57 -6 -4 -5 3 3 14 11 18 11 23 -1 30 -9 6 -10 11 -2 15 6 4 9 12 5 17 -8 13
-17 60 -16 84 1 10 -4 26 -11 34 -10 12 -9 13 3 6 13 -8 13 -7 1 8 -11 14 -11
17 0 17 9 0 10 3 3 8 -11 7 -14 20 -16 80 -1 17 -5 32 -9 32 -5 0 -8 10 -8 23
0 12 -1 31 -4 42 -2 11 1 23 7 27 7 5 6 8 -4 8 -9 0 -17 10 -17 23 -1 12 -3
39 -4 60 -2 20 -6 37 -9 37 -3 0 -6 10 -7 23 -1 32 -7 60 -17 76 -7 11 -6 12
5 6 11 -7 12 -6 2 6 -7 8 -12 24 -13 34 -1 47 -5 63 -14 58 -5 -4 -6 5 -2 21
3 14 2 26 -2 26 -5 0 -8 11 -7 25 2 14 -1 27 -6 31 -5 3 -9 10 -9 15 0 6 5 7
11 3 6 -3 4 4 -4 17 -8 13 -13 32 -12 41 2 9 -4 19 -12 22 -12 5 -13 9 -3 21
8 10 9 15 2 15 -6 0 -9 7 -6 15 4 9 0 15 -7 15 -11 0 -11 3 1 10 11 7 11 10 2
10 -7 0 -12 8 -11 18 2 9 -3 28 -10 41 -11 19 -11 22 1 16 10 -6 11 -5 1 6 -7
7 -13 23 -13 35 0 12 -6 25 -12 27 -10 4 -10 6 0 6 9 1 8 9 -5 28 -14 21 -15
25 -3 18 13 -8 13 -6 2 8 -8 9 -11 21 -7 27 3 5 1 10 -5 10 -6 0 -9 4 -6 8 3
5 -1 21 -9 36 -8 14 -10 24 -5 21 5 -3 2 8 -6 25 -9 16 -13 34 -9 40 3 5 2 10
-3 10 -6 0 -9 14 -8 31 1 17 -3 33 -9 35 -6 3 -12 16 -13 31 -1 15 -8 30 -15
35 -9 6 -8 8 3 8 13 0 13 1 0 10 -8 5 -11 10 -6 10 5 0 1 10 -10 22 -10 12
-13 18 -6 14 6 -4 12 -2 12 3 0 6 -5 11 -11 11 -5 0 -8 4 -4 9 3 5 1 12 -4 16
-6 3 -8 12 -4 20 3 8 0 15 -5 15 -6 0 -9 9 -7 20 2 11 0 20 -5 20 -4 0 -7 11
-6 25 2 13 0 22 -5 20 -4 -3 -10 -1 -14 5 -3 5 0 10 7 10 8 1 7 5 -5 14 -14
11 -15 15 -5 19 11 4 11 6 0 6 -7 1 -11 5 -7 10 3 5 0 15 -7 23 -7 7 -14 22
-16 33 -2 11 -6 27 -9 35 -6 14 -12 39 -15 68 -1 6 -5 12 -10 12 -4 0 -8 9 -8
20 0 11 -5 20 -11 20 -5 0 -8 4 -5 8 3 5 -1 21 -9 36 -10 18 -10 25 -2 20 9
-5 9 -3 0 7 -7 7 -13 21 -13 31 0 10 -5 18 -11 18 -5 0 -7 5 -4 10 3 6 2 10
-4 10 -6 0 -8 7 -4 15 3 9 -3 25 -13 37 -12 14 -14 18 -4 13 13 -8 13 -7 1 8
-7 9 -10 17 -5 17 4 0 -1 7 -12 16 -10 8 -12 12 -4 8 11 -5 10 -2 -3 13 -10
11 -19 34 -20 51 -1 16 -5 28 -9 25 -5 -2 -8 5 -8 16 0 12 -6 21 -12 21 -9 0
-8 4 2 10 9 6 10 10 3 10 -7 0 -18 18 -24 40 -7 22 -16 40 -20 40 -4 0 -6 9
-4 20 3 13 -2 20 -12 20 -11 0 -14 7 -11 25 3 14 1 28 -4 31 -4 3 -5 10 -2 16
4 7 2 8 -4 4 -7 -4 -12 -1 -12 8 0 9 -5 16 -12 16 -6 0 -8 3 -5 7 4 3 1 13 -6
21 -9 13 -9 14 0 8 9 -5 11 -2 7 8 -3 9 -10 16 -14 16 -8 0 -23 44 -25 69 0 8
-6 16 -13 19 -6 2 -12 12 -12 23 0 10 -4 19 -10 19 -5 0 -7 7 -4 15 4 8 1 15
-6 15 -6 0 -8 5 -5 10 3 6 1 10 -4 10 -6 0 -11 9 -11 20 0 11 -5 20 -11 20 -6
0 -9 9 -6 20 3 10 2 19 -2 18 -18 -2 -22 3 -12 16 10 12 8 17 -8 26 -12 6 -21
20 -21 31 0 13 -4 18 -12 13 -8 -5 -9 -2 -5 10 4 10 1 19 -8 22 -8 4 -13 9
-10 13 2 4 -3 20 -11 35 -17 34 -18 39 -2 30 7 -5 8 -3 4 5 -5 7 -11 10 -14 7
-7 -8 -42 50 -42 69 0 8 -4 15 -8 15 -4 0 -8 9 -9 20 -1 11 -9 27 -17 36 -9 8
-16 20 -16 25 0 20 -2 24 -16 32 -8 4 -14 17 -14 28 0 11 -5 17 -10 14 -9 -5
-15 24 -11 48 1 5 -3 6 -9 2 -9 -6 -14 7 -11 28 0 4 -3 7 -9 7 -5 0 -10 7 -10
15 0 8 -4 15 -9 15 -5 0 -11 9 -14 20 -9 33 -9 34 -26 48 -14 11 -14 11 4 6
18 -6 17 -4 -3 10 -12 10 -20 21 -17 26 3 5 1 11 -5 15 -6 4 -8 10 -5 15 3 5
0 12 -6 16 -8 5 -9 3 -4 -6 5 -9 4 -11 -3 -6 -7 4 -12 15 -12 25 0 10 -6 24
-14 31 -8 6 -12 18 -9 26 3 9 0 14 -8 12 -9 -2 -13 4 -11 16 2 10 -1 15 -7 12
-5 -3 -17 12 -27 34 -10 22 -21 40 -25 40 -4 0 -5 9 -2 20 5 18 -5 25 -30 21
-5 -1 -6 3 -3 8 4 5 -1 16 -9 24 -11 12 -12 17 -2 20 9 4 9 6 0 6 -7 1 -13 8
-13 17 0 8 -4 13 -9 10 -9 -6 -38 53 -33 67 1 5 -2 6 -8 2 -5 -3 -10 1 -10 9
0 9 -4 16 -10 16 -5 0 -10 7 -10 15 0 8 -4 15 -10 15 -5 0 -10 9 -10 21 0 11
-4 17 -10 14 -5 -3 -10 1 -10 9 0 9 -5 16 -10 16 -6 0 -9 3 -9 8 3 19 -2 33
-11 27 -9 -6 -14 8 -11 28 0 4 -3 7 -9 7 -5 0 -10 7 -10 16 0 8 -4 13 -9 9 -5
-3 -11 5 -13 17 -2 13 -9 22 -16 20 -8 -1 -11 2 -7 8 3 5 1 10 -5 10 -6 0 -9
4 -6 9 3 5 -1 14 -9 21 -8 7 -12 16 -9 21 3 5 -2 9 -11 9 -9 0 -13 5 -10 10 3
6 1 10 -5 10 -6 0 -8 5 -5 10 3 6 1 10 -4 10 -6 0 -11 7 -11 16 0 8 -4 12 -10
9 -5 -3 -10 1 -10 9 0 8 -10 22 -22 30 -14 10 -17 16 -8 16 10 0 8 4 -5 13
-12 9 -15 19 -10 28 5 8 5 11 0 7 -12 -11 -35 11 -35 33 0 11 -4 18 -9 17 -5
-2 -10 2 -11 7 -1 6 -8 13 -15 18 -8 4 -12 14 -8 23 3 9 0 14 -7 12 -8 -2 -19
7 -25 19 -7 13 -15 20 -20 15 -4 -4 -5 1 -2 11 4 12 1 17 -10 17 -9 0 -14 3
-10 6 3 3 -5 17 -19 31 -13 13 -22 29 -19 34 4 5 -1 9 -10 9 -9 0 -13 5 -10
10 3 6 -1 13 -9 16 -9 3 -16 11 -16 16 0 6 -8 18 -18 27 -9 9 -23 28 -31 43
-8 15 -18 25 -23 22 -4 -3 -8 0 -8 6 0 6 -7 18 -15 27 -8 8 -12 19 -9 25 4 7
2 8 -4 4 -7 -4 -12 -2 -12 4 0 6 -19 30 -42 53 -24 22 -34 35 -23 28 11 -8 3
2 -17 21 -21 20 -34 38 -31 42 3 3 -2 6 -12 6 -14 0 -15 3 -5 15 10 13 9 15
-9 15 -19 0 -26 10 -22 33 1 5 -2 7 -6 4 -5 -2 -16 4 -25 15 -10 10 -16 18
-13 18 3 0 0 6 -7 14 -7 8 -16 12 -19 10 -4 -2 -10 8 -13 22 -5 18 -12 24 -22
20 -8 -3 -12 -2 -9 3 3 5 -6 22 -20 37 -14 15 -35 40 -47 55 -12 15 -26 25
-30 23 -7 -5 -12 10 -9 28 0 4 -8 10 -19 13 -11 4 -20 11 -20 16 0 15 -26 39
-34 32 -3 -4 -6 0 -6 8 0 8 -9 21 -20 29 -11 8 -20 20 -20 28 0 7 -5 10 -12 6
-8 -5 -9 -2 -4 11 6 16 4 16 -11 4 -9 -8 -14 -9 -10 -2 4 6 3 14 -3 18 -6 4
-8 11 -5 16 4 5 -2 6 -12 2 -10 -3 -15 -3 -11 2 4 4 -6 20 -22 35 -16 15 -26
30 -22 34 3 4 -2 4 -13 0 -11 -4 -17 -4 -13 0 3 4 -9 23 -28 41 -19 18 -34 39
-34 46 0 7 -3 10 -6 6 -8 -8 -33 16 -27 26 2 4 -3 7 -11 7 -8 0 -18 9 -21 20
-3 11 -12 20 -20 20 -8 0 -17 9 -20 20 -4 11 -11 18 -16 14 -6 -3 -13 3 -16
15 -3 12 -16 24 -29 27 -22 6 -29 15 -25 37 0 4 -4 7 -9 7 -13 0 -70 57 -70
70 0 5 -7 7 -15 4 -9 -4 -15 0 -15 10 0 9 -7 16 -16 16 -8 0 -13 4 -10 9 3 5
-3 11 -14 14 -11 3 -20 13 -20 22 0 9 -4 14 -8 11 -5 -3 -19 6 -30 19 -12 14
-27 25 -33 25 -5 0 -8 4 -5 9 3 5 -3 11 -14 14 -13 3 -18 10 -14 21 5 12 2 15
-12 9 -13 -5 -15 -3 -9 7 6 10 4 12 -9 7 -10 -4 -15 -3 -11 3 3 6 1 10 -4 10
-6 0 -24 14 -39 30 -16 17 -34 30 -41 30 -6 0 -11 7 -11 15 0 8 -4 15 -8 15
-16 0 -52 37 -44 45 4 5 -1 5 -10 2 -12 -4 -18 -1 -18 8 0 8 -5 15 -11 15 -16
0 -39 26 -31 35 4 5 2 5 -5 1 -7 -4 -18 2 -25 14 -7 11 -19 20 -26 20 -7 0
-15 7 -18 15 -4 8 -10 12 -15 9 -5 -3 -9 2 -9 10 0 9 -6 15 -12 14 -7 -2 -12
3 -10 10 1 6 -1 11 -5 11 -20 -3 -34 2 -28 11 3 6 0 10 -8 10 -8 0 -22 9 -32
20 -10 11 -24 20 -32 20 -7 0 -13 7 -13 17 0 9 -3 13 -6 10 -4 -4 -15 3 -25
15 -11 11 -19 17 -19 12 0 -5 -5 -1 -11 9 -5 9 -15 17 -22 17 -7 0 -18 9 -25
21 -7 12 -16 19 -18 16 -3 -3 -17 6 -32 20 -15 13 -38 34 -51 46 -13 12 -21
16 -17 10 4 -7 2 -13 -3 -13 -6 0 -11 6 -11 14 0 8 -9 18 -20 21 -11 4 -17 11
-14 17 4 7 2 8 -4 4 -11 -6 -55 28 -47 36 2 2 -6 5 -18 5 -12 1 -23 7 -25 13
-2 5 -10 10 -18 10 -8 0 -14 7 -14 16 0 8 -4 12 -10 9 -5 -3 -10 -2 -10 4 0 5
-8 12 -19 16 -10 3 -31 17 -45 30 -14 13 -26 22 -26 19 0 -3 -9 0 -20 6 -11 6
-20 17 -20 25 0 9 -6 12 -15 9 -8 -4 -17 1 -21 10 -3 9 -13 16 -21 16 -8 0
-11 4 -8 10 3 6 -1 7 -9 4 -9 -3 -16 -1 -16 6 0 6 -4 8 -10 5 -5 -3 -10 1 -10
9 0 9 -6 15 -12 13 -7 -1 -12 4 -10 11 1 8 -2 10 -8 7 -6 -4 -20 1 -31 11 -10
9 -19 13 -19 8 -1 -5 -7 2 -15 16 -8 14 -14 19 -15 12 0 -11 -3 -11 -15 0 -34
31 -43 36 -49 31 -3 -4 -6 -2 -6 4 0 6 -13 16 -30 23 -16 7 -30 16 -30 21 0 9
-40 24 -54 21 -5 -2 -6 4 -2 13 3 9 2 13 -3 10 -5 -3 -12 -1 -16 5 -4 6 -11 8
-16 5 -5 -4 -9 -1 -9 4 0 6 -5 11 -11 11 -6 0 -17 7 -26 15 -8 8 -18 13 -23
10 -5 -3 -12 4 -15 15 -6 18 -9 19 -23 8 -12 -10 -14 -10 -8 0 4 7 1 12 -8 12
-9 0 -16 5 -16 10 0 6 -9 10 -20 10 -11 0 -23 7 -26 15 -4 8 -10 12 -15 9 -5
-3 -9 0 -9 5 0 6 -7 11 -16 11 -8 0 -13 4 -10 8 2 4 -5 9 -17 9 -12 1 -23 7
-25 13 -2 5 -10 10 -18 10 -8 0 -14 5 -14 11 0 5 -4 7 -10 4 -5 -3 -10 -1 -10
5 0 7 -5 10 -12 8 -6 -2 -20 4 -30 14 -10 10 -23 16 -27 13 -5 -2 -11 2 -15
10 -3 8 -15 15 -26 15 -11 0 -23 7 -26 15 -4 8 -10 13 -14 10 -5 -3 -14 0 -22
7 -7 7 -20 14 -28 16 -8 2 -18 9 -22 16 -4 8 -19 12 -32 11 -19 -2 -23 1 -19
13 4 9 2 13 -5 8 -6 -3 -13 -2 -17 4 -4 6 -11 8 -16 5 -5 -4 -9 -1 -9 4 0 6
-7 11 -15 11 -8 0 -15 5 -15 11 0 5 -5 7 -10 4 -6 -3 -17 1 -26 9 -9 9 -20 14
-25 11 -5 -4 -9 1 -9 11 0 13 -3 14 -15 4 -12 -10 -16 -9 -21 4 -3 9 -10 13
-15 10 -5 -3 -9 0 -9 6 0 6 -4 9 -9 6 -5 -4 -11 -1 -13 6 -2 6 -15 13 -29 15
-13 2 -25 8 -27 13 -2 6 -12 10 -22 10 -9 0 -23 7 -30 15 -7 8 -16 12 -21 9
-5 -3 -9 0 -9 7 0 7 -3 10 -6 6 -4 -3 -31 7 -60 23 -30 16 -52 23 -48 17 3 -7
-1 -4 -9 6 -11 14 -16 15 -20 5 -4 -9 -6 -7 -6 4 -1 9 -6 20 -13 24 -7 4 -8 3
-4 -4 4 -7 2 -12 -3 -12 -6 0 -11 5 -11 12 0 6 -3 8 -7 5 -3 -4 -15 1 -26 10
-15 13 -19 14 -13 3 5 -9 2 -8 -7 2 -8 10 -17 14 -21 10 -4 -4 -14 2 -22 12
-8 11 -14 14 -14 7 0 -9 -5 -8 -16 3 -8 9 -24 16 -35 16 -10 0 -19 5 -19 11 0
5 -4 8 -9 4 -5 -3 -15 0 -23 7 -7 7 -22 15 -33 16 -11 2 -26 8 -32 14 -7 6
-20 8 -28 4 -9 -3 -15 0 -15 9 0 8 -3 14 -7 14 -22 -4 -33 2 -27 14 5 8 2 8
-9 -2 -15 -12 -21 -9 -18 11 0 4 -6 5 -13 2 -8 -3 -28 1 -44 10 -16 8 -32 12
-36 9 -3 -4 -6 -1 -6 5 0 7 -8 12 -17 12 -9 0 -25 8 -36 18 -11 9 -17 11 -13
5 4 -7 3 -13 -2 -13 -6 0 -13 7 -16 15 -4 13 -10 14 -26 5 -16 -9 -22 -8 -26
5 -3 8 -10 12 -15 9 -5 -3 -9 -2 -9 3 0 4 -11 13 -25 20 -14 6 -23 7 -19 2 3
-5 0 -9 -5 -9 -6 0 -11 5 -11 11 0 5 -4 8 -9 4 -5 -3 -12 -1 -16 5 -4 6 -11 8
-16 5 -5 -4 -9 -1 -9 4 0 6 -11 11 -25 11 -14 0 -25 4 -25 8 0 4 -10 8 -22 9
-11 1 -25 8 -29 15 -7 10 -9 10 -9 -2 0 -12 -2 -12 -9 -2 -4 8 -11 13 -15 13
-20 -3 -26 0 -20 12 5 8 2 8 -9 -2 -11 -9 -17 -10 -17 -2 0 6 -9 11 -20 11
-11 0 -20 6 -20 13 0 8 -4 7 -10 -3 -6 -10 -10 -11 -10 -2 0 6 -11 12 -25 12
-14 0 -25 4 -25 8 0 4 -12 9 -27 10 -15 1 -30 7 -34 14 -4 6 -14 8 -23 5 -9
-4 -16 -2 -16 4 0 6 -4 8 -9 4 -5 -3 -12 -1 -16 5 -3 5 -16 8 -28 6 -12 -1
-28 3 -36 11 -11 12 -15 12 -22 1 -7 -10 -9 -10 -9 0 0 6 -7 12 -15 12 -8 0
-15 5 -15 11 0 8 -4 8 -13 1 -10 -9 -19 -8 -34 3 -11 8 -23 11 -27 8 -3 -3 -6
-1 -6 7 0 10 -4 10 -17 -1 -14 -12 -16 -12 -8 0 6 11 4 13 -8 8 -10 -3 -17 -2
-17 4 0 6 -4 7 -10 4 -5 -3 -10 -1 -10 5 0 6 -5 8 -10 5 -6 -4 -18 -1 -27 7
-12 9 -15 9 -9 1 4 -7 2 -13 -3 -13 -6 0 -11 5 -11 11 0 5 -4 7 -10 4 -5 -3
-10 -2 -10 3 0 5 -11 10 -25 11 -48 3 -55 4 -55 13 0 5 -9 6 -20 3 -14 -4 -22
-1 -26 10 -5 13 -9 14 -15 4 -6 -10 -12 -9 -29 6 -17 15 -23 16 -29 6 -6 -9
-10 -10 -15 -2 -4 6 -12 9 -17 6 -5 -4 -9 -2 -9 3 0 5 -14 8 -30 7 -17 -1 -33
1 -36 6 -3 5 -10 7 -15 4 -5 -4 -9 -2 -9 4 0 6 -7 7 -17 4 -11 -4 -14 -3 -9 5
5 8 2 10 -8 6 -9 -3 -24 -3 -33 1 -10 4 -34 10 -53 12 -19 2 -40 9 -47 15 -8
6 -16 8 -20 4 -3 -3 0 -6 7 -6 7 0 10 -3 7 -6 -4 -4 -12 -2 -20 4 -7 6 -29 13
-48 15 -19 2 -39 6 -44 8 -6 3 -21 5 -35 5 -14 -1 -31 5 -39 12 -12 11 -15 11
-22 0 -5 -7 -9 -8 -9 -2 0 10 -13 14 -54 15 -11 0 -27 4 -38 10 -13 7 -18 6
-18 -3 0 -10 -2 -10 -8 -1 -5 7 -27 14 -50 15 -24 1 -39 5 -35 11 3 6 1 7 -5
3 -6 -3 -14 -2 -17 4 -5 8 -11 7 -21 -1 -11 -9 -14 -8 -14 2 0 11 -2 11 -10
-1 -5 -8 -10 -10 -10 -4 0 7 -13 10 -30 9 -16 -1 -30 1 -30 5 0 6 -25 9 -92
11 -10 0 -20 5 -24 10 -4 6 -11 6 -20 -2 -8 -6 -14 -7 -14 -2 0 9 -32 14 -117
17 -18 0 -33 5 -33 9 0 5 -9 6 -19 2 -11 -3 -23 -1 -26 6 -6 8 -10 8 -16 -2
-6 -11 -12 -10 -27 5 -13 11 -22 14 -27 7 -6 -11 -32 -10 -52 2 -6 4 -15 3
-18 -3 -4 -7 -11 -7 -18 -2 -11 8 -40 12 -127 16 -20 1 -41 5 -47 9 -6 4 -14
3 -18 -3 -4 -6 -12 -7 -18 -3 -7 4 -31 8 -54 9 -22 1 -46 4 -51 8 -6 3 -13 0
-15 -6 -4 -10 -6 -10 -6 0 -1 7 -6 10 -11 7 -6 -4 -18 -1 -27 7 -12 9 -15 9
-9 1 4 -7 2 -13 -3 -13 -6 0 -11 6 -11 13 0 9 -2 9 -9 -1 -4 -8 -12 -14 -16
-14 -4 0 -12 6 -16 14 -5 7 -9 8 -9 2 0 -6 -7 -11 -15 -11 -8 0 -15 5 -15 10
0 5 -7 4 -15 -3 -14 -12 -20 -7 -16 14 1 5 -4 5 -11 -1 -7 -6 -23 -9 -35 -7
-13 2 -23 -1 -23 -7 0 -5 -5 -7 -10 -4 -6 4 -8 10 -5 14 2 5 -7 6 -20 3 -15
-2 -22 -9 -18 -16 3 -6 -3 -2 -15 8 -17 14 -22 16 -22 5 0 -11 -2 -11 -10 1
-5 8 -10 10 -10 5 0 -15 -80 -6 -80 9 0 6 -5 3 -11 -7 -7 -12 -15 -15 -27 -9
-9 5 -61 8 -114 8 -54 -1 -98 2 -98 6 0 7 -21 5 -35 -4 -6 -4 -16 -3 -23 1 -6
4 -37 4 -68 1 -30 -3 -58 -2 -60 2 -3 5 -13 3 -22 -4 -12 -10 -14 -10 -8 0 8
14 7 14 -14 3z m328 -9721 c1 -2 7 -3 12 -4 6 0 15 -8 20 -16 8 -12 10 -12 11
5 0 11 3 14 6 7 2 -6 9 -10 14 -6 5 3 9 -1 9 -8 0 -10 2 -10 9 1 7 11 10 9 16
-8 3 -12 11 -19 16 -16 5 4 9 1 9 -5 0 -7 7 -10 15 -6 14 5 20 -6 16 -28 -1
-5 5 -6 14 -3 10 5 15 0 15 -14 0 -16 4 -19 17 -15 10 4 14 4 10 0 -4 -4 -1
-14 6 -22 10 -13 9 -15 -3 -8 -8 4 -4 -2 9 -13 14 -13 18 -21 10 -21 -9 0 -10
-3 -4 -8 9 -6 14 -18 19 -47 1 -5 5 -15 9 -22 4 -6 3 -14 -1 -17 -5 -3 -8 -23
-8 -46 1 -22 -2 -40 -5 -40 -4 0 -10 -7 -13 -16 -3 -8 -2 -12 4 -9 5 3 2 -7
-7 -24 -10 -16 -21 -27 -25 -25 -4 3 -5 -2 -2 -10 4 -10 1 -16 -10 -16 -10 0
-13 -5 -9 -17 5 -13 2 -15 -11 -10 -9 4 -15 3 -11 -2 3 -6 -8 -18 -25 -27 -16
-10 -30 -22 -30 -27 0 -4 -4 -5 -10 -2 -5 3 -10 2 -10 -4 0 -6 -7 -8 -15 -5
-8 4 -15 1 -15 -5 0 -6 -7 -8 -15 -5 -9 4 -15 0 -15 -7 0 -11 -3 -11 -10 1 -5
8 -10 10 -10 5 0 -10 -65 -11 -100 -2 -54 14 -70 20 -70 28 0 5 -7 9 -15 9 -8
0 -15 5 -15 12 0 6 -3 8 -7 5 -3 -4 -19 6 -34 22 -15 16 -30 26 -34 23 -4 -4
-6 -2 -5 3 5 22 -1 36 -12 29 -6 -4 -8 -3 -5 4 9 13 -2 44 -13 37 -4 -2 -6 7
-4 20 1 14 -1 25 -6 25 -9 0 -8 19 3 37 4 6 2 15 -4 19 -8 5 -9 3 -4 -6 5 -9
4 -11 -3 -6 -9 5 -9 13 -1 28 6 11 9 29 6 39 -3 10 -1 19 5 19 5 0 7 4 4 9 -3
5 1 14 9 21 12 10 13 16 3 27 -9 11 -7 15 10 20 12 3 19 9 16 14 -3 5 8 23 25
40 17 17 31 27 31 24 0 -4 9 3 21 16 11 13 18 17 14 9 -4 -10 -2 -9 8 2 8 10
17 15 20 11 4 -3 7 -2 7 4 0 5 6 10 13 10 29 2 89 12 94 16 4 5 34 2 41 -3z
m-9128 -5014 c0 -2 -7 -7 -16 -10 -8 -3 -12 -2 -9 4 6 10 25 14 25 6z m1280
-1906 c0 -5 -2 -10 -4 -10 -3 0 -8 5 -11 10 -3 6 -1 10 4 10 6 0 11 -4 11 -10z
m-770 -1400 c0 -5 -4 -10 -10 -10 -5 0 -10 5 -10 10 0 6 5 10 10 10 6 0 10 -4
10 -10z"/>
<path d="M18526 4493 c-6 -14 -5 -15 5 -6 7 7 10 15 7 18 -3 3 -9 -2 -12 -12z"/>
</g>
</svg>
